<svg width="960" height="960" viewBox="0 0 960 960" fill="none" xmlns="http://www.w3.org/2000/svg">
<path fill-rule="evenodd" clip-rule="evenodd" d="M531.956 183.879C532.19 180.086 532.284 175.923 530.684 172.623C530.271 171.74 529.723 170.927 529.06 170.213C525.888 166.811 520.712 166.42 516.06 166.331C501.823 166.081 487.584 166.591 473.402 167.859C469.754 168.182 465.973 168.606 462.894 170.592C458.879 173.192 456.826 178.078 456.469 182.852C456.402 183.755 456.357 184.759 456.346 185.808C456.302 190.437 457.049 195.847 460.641 196.818C463.392 197.575 468.336 196.317 472.821 195.175C475.446 194.507 477.914 193.879 479.694 193.718C492.298 192.575 505 193.168 517.443 195.481L517.461 195.485C520.914 196.126 524.755 196.839 527.695 194.923C531.142 192.679 531.722 187.973 531.956 183.879ZM525.417 172.578C525.212 171.676 524.314 171.113 523.413 171.319C522.512 171.524 521.949 172.422 522.154 173.323C523.519 179.297 523.453 185.509 521.963 191.453C521.738 192.35 522.282 193.259 523.179 193.483C524.076 193.708 524.984 193.164 525.209 192.267C526.827 185.812 526.899 179.066 525.417 172.578Z" fill="url(#paint0_linear_36_2328)"/>
<path fill-rule="evenodd" clip-rule="evenodd" d="M501.21 304.685C500.605 304.682 500 304.679 499.392 304.679C490.17 304.643 480.953 304.603 471.741 304.559C460.798 304.514 448.393 305.105 441.276 313.405C439.367 315.622 438.016 318.229 436.662 320.84C435.461 323.157 434.258 325.477 432.664 327.528C426.83 335.024 416.88 337.724 407.643 339.977C393.811 343.334 353.398 355.382 309.198 368.668C308.305 377.534 308.26 386.466 309.064 395.34C309.596 401.21 310.494 407.041 311.752 412.798C312.522 416.323 313.704 420.193 316.861 421.956C319.427 423.382 322.595 422.98 325.495 422.456C334.54 420.894 343.417 418.485 352.011 415.261L352.68 415.473C353.502 412.848 354.454 410.264 355.536 407.72C363.367 389.269 379.531 373.172 399.421 370.751C413.455 369.044 427.805 374.388 438.699 383.401C449.593 392.414 457.272 404.83 462.493 417.971C463.27 419.928 463.999 421.906 464.679 423.906L465.203 423.728C480.013 424.246 494.739 426.189 509.177 429.528L510.192 430.075C515.695 419.598 522.331 409.756 529.981 400.726C538.024 391.322 547.483 382.498 559.252 378.717C571.021 374.936 585.534 377.446 592.896 387.385C595.986 391.568 597.559 396.565 598.63 401.708C603.437 402.209 608.198 402.843 612.958 403.477C617.752 404.115 622.546 404.754 627.388 405.255C629.876 405.507 632.575 405.723 634.706 404.407C637.733 402.536 638.333 398.472 638.633 394.936C639.052 390.008 639.469 385.078 639.882 380.144C640.696 370.658 641.503 361.169 642.303 351.676L642.392 351.319C614.397 343.946 586.393 336.572 558.382 329.198C546.312 326.019 533.707 322.549 524.582 314.038C523.883 313.388 523.205 312.708 522.527 312.027C520.659 310.154 518.79 308.279 516.482 307.01C512.455 304.79 507.636 304.712 503.029 304.69C502.421 304.69 501.816 304.688 501.21 304.685ZM512.141 313.814C511.499 313.15 510.439 313.131 509.775 313.774C509.11 314.416 509.092 315.475 509.734 316.14C520.904 327.701 537.098 332.41 552.065 336.376C573.536 342.065 595.111 347.339 616.79 352.196C617.692 352.398 618.586 351.831 618.789 350.929C618.991 350.027 618.423 349.132 617.521 348.93C595.884 344.082 574.351 338.819 552.922 333.14C537.841 329.144 522.571 324.609 512.141 313.814Z" fill="url(#paint1_linear_36_2328)"/>
<path d="M824.97 391.255L823.654 391.555C821.946 390.025 819.967 388.826 817.82 388.019C817.206 387.762 816.582 387.506 815.957 387.272L816.805 385.153C817.686 382.353 818.571 379.56 819.46 376.775L820.698 377.165C822.28 377.295 823.787 377.897 825.022 378.895C826.258 379.892 827.164 381.237 827.625 382.757C828.086 384.276 828.079 385.899 827.605 387.414C827.132 388.929 826.214 390.267 824.97 391.254V391.255Z" fill="#171717"/>
<path d="M821.824 362.14C823.084 364.929 822.17 368.164 821.255 371.075C820.655 372.975 820.05 374.875 819.455 376.775C818.563 379.564 817.678 382.357 816.8 385.153L815.952 387.272C810.898 385.469 805.734 383.993 800.491 382.855C799.097 382.52 797.68 382.186 796.263 381.974L799.074 380.825C799.442 378.784 799.833 376.731 800.234 374.701C801.138 370.15 802.134 365.624 803.224 361.125C803.432 359.688 804.048 358.34 805 357.243C806.8 355.543 809.652 355.96 812.061 356.496C815.878 357.332 820.229 358.582 821.824 362.14Z" fill="#171717"/>
<path d="M800.986 429.852C802.47 432.875 799.926 436.634 796.725 437.683C793.524 438.732 790.043 437.895 786.786 437.047C785.559 436.83 784.401 436.325 783.406 435.574C782.768 434.918 782.311 434.107 782.081 433.221C781.85 432.336 781.853 431.405 782.09 430.521C782.572 428.761 783.362 427.099 784.421 425.613L785.121 423.94C790.292 426.168 795.649 427.938 801.129 429.228L800.986 429.852Z" fill="#171717"/>
<path d="M597.748 474.384C598.81 475.348 599.628 476.55 600.134 477.892C600.64 479.235 600.82 480.678 600.659 482.103C600.627 482.303 600.582 482.5 600.525 482.694C599.733 485.617 597.145 487.781 594.568 489.443C587.685 493.905 576.106 497.243 567.963 498.143L567.082 497.976C569.201 487.189 571.317 476.398 573.429 465.603L573.708 464.51C579.421 465.897 585.012 467.74 590.43 470.021C593.12 471.007 595.601 472.487 597.748 474.384V474.384Z" fill="#171717"/>
<path d="M594.569 489.444L596.543 489.466C594.49 511.051 582.13 531.209 560.088 538.304L559.218 538.137C561.84 524.751 564.461 511.365 567.083 497.978L567.964 498.145C576.107 497.241 587.686 493.906 594.569 489.444Z" fill="#171717"/>
<path d="M552.9 149.164C553.29 152.042 551.695 154.797 549.955 157.129C544.938 163.837 538.307 169.168 530.679 172.629C530.265 171.746 529.715 170.933 529.05 170.219C525.882 166.819 520.706 166.426 516.05 166.337C501.816 166.087 487.58 166.595 473.4 167.86C469.752 168.184 465.971 168.607 462.892 170.593C458.876 173.193 456.824 178.078 456.467 182.853C456.4 183.753 456.355 184.761 456.344 185.809L454.544 185.787C451.499 191.956 441.704 193.172 437.244 187.929C432.784 182.686 435.56 173.215 442.13 171.196C438.058 172.624 433.976 167.66 434.79 163.421C435.604 159.182 439.464 156.204 443.413 154.441C450.084 151.534 457.488 150.752 464.619 152.199C464.787 152.245 464.959 152.278 465.132 152.299L464.619 152.199C461.406 151.307 460.882 145.986 463.492 143.621C466.225 141.121 470.431 141.245 474.045 142.048C479.745 143.331 485.066 145.919 490.198 148.73C492.027 143.93 493.946 139.003 497.516 135.321C501.086 131.639 506.741 129.464 511.46 131.484C513.22 132.322 514.646 133.729 515.507 135.479C516.367 137.228 516.612 139.216 516.201 141.122C515.51 142.028 514.922 143.008 514.45 144.045C515.317 143.271 515.928 142.252 516.201 141.122C517.88 138.809 520.295 137.133 523.05 136.37C526.91 135.388 531.428 136.87 533.458 140.285C534.122 141.476 534.46 142.821 534.438 144.184C534.416 145.547 534.036 146.88 533.335 148.049C532.435 148.841 531.55 149.678 530.68 150.492C531.793 149.967 532.719 149.114 533.335 148.049C535.957 145.773 538.812 143.765 542.17 143.049C546.7 142.091 552.291 144.59 552.9 149.164Z" fill="#171717"/>
<path d="M557.567 681.772C563.379 688.967 570.15 695.605 576.631 702.465C583.793 710.065 590.597 717.926 595.331 727.096C596.477 729.297 597.4 731.606 598.086 733.99L596.586 734.403C576.495 746.15 550.861 745.458 529.175 737.036C507.489 728.614 492.932 700.57 476.611 683.982L475.841 683.815C481.183 660.199 485.843 636.439 489.819 612.533C498.287 608.114 507.69 605.787 517.242 605.748C526.793 605.709 536.215 607.959 544.719 612.31C541.741 628.563 539.811 645.318 545.254 660.735C548.007 668.541 552.413 675.369 557.567 681.772Z" fill="url(#paint2_linear_36_2328)"/>
<path d="M493.191 474.685C494.463 469.885 500.219 467.423 505.205 466.107C505.25 466.096 505.283 466.085 505.328 466.074L505.473 466.643C505.127 473.872 504.71 481.097 504.224 488.318C501.452 487.261 498.868 485.766 496.571 483.889C494.262 481.803 492.611 478.758 493.001 475.679C493.047 475.345 493.11 475.013 493.191 474.685V474.685Z" fill="#171717"/>
<path d="M493 475.678C492.61 478.757 494.261 481.802 496.57 483.888C498.867 485.765 501.451 487.26 504.223 488.317C503.074 505.898 501.553 523.441 499.66 540.947L499.448 540.925C485.548 542.275 472.006 541.639 458.508 538.036L458.162 538.025C458.909 522.285 459.66 506.541 460.415 490.794L461.854 490.861C465.754 489.221 470.332 484.826 472.786 480.375C473.597 478.974 474.167 477.447 474.47 475.857C475.37 470.246 474.336 464.523 473.276 458.934C471.023 447.121 468.576 435.274 464.676 423.907L465.2 423.729C480.01 424.247 494.736 426.189 509.174 429.529L510.189 430.076C502.73 444.202 496.967 459.161 493.021 474.641L493.188 474.686C493.112 475.009 493.045 475.344 493 475.678Z" fill="#171717"/>
<path d="M482.726 265.959L483.273 267.945C483.272 268.881 482.932 269.785 482.316 270.489C481.7 271.193 480.849 271.65 479.922 271.775C478.994 271.9 478.053 271.685 477.272 271.169C476.492 270.653 475.924 269.871 475.676 268.969C475.427 268.067 475.514 267.105 475.921 266.262C476.327 265.419 477.026 264.752 477.886 264.385C478.747 264.017 479.712 263.974 480.602 264.264C481.492 264.553 482.246 265.155 482.726 265.959V265.959Z" fill="#171717"/>
<path d="M472.787 480.375C470.333 484.826 465.759 489.221 461.855 490.861L460.416 490.794C460.628 486.421 460.836 482.045 461.041 477.664L461.376 476.526C465.235 477.642 469.039 478.925 472.787 480.375Z" fill="#171717"/>
<path d="M394.734 527.428L392.893 527.763C382.441 520.768 374.53 510.583 370.337 498.726L370.326 498.57C375.609 499.189 380.934 499.356 386.245 499.07L389.078 498.479C391.1 508.107 393.005 517.756 394.734 527.428Z" fill="#171717"/>
<path d="M375.3 668.586C385.117 657.754 394.521 646.499 399.473 632.878C402 625.653 403.443 618.093 403.757 610.445C419.481 603.635 437.164 602.865 453.42 608.281L454.803 608.348C454.513 614.405 454.223 620.459 453.933 626.509C453.42 637.129 452.896 647.849 451.49 658.391L451.423 658.38C441.056 678.707 427 696.928 409.97 712.115C400.31 720.805 389.511 728.647 377.107 732.507C364.948 736.289 350.981 735.82 340.239 729.007C340.237 727.878 340.296 726.75 340.417 725.627C341.99 710.813 350.1 697.817 359.671 686.149C362.047 683.26 364.512 680.449 366.989 677.704C369.735 674.666 372.535 671.643 375.3 668.586Z" fill="url(#paint3_linear_36_2328)"/>
<path d="M389.078 498.48L386.245 499.071C380.934 499.357 375.608 499.19 370.326 498.571C369.255 498.404 368.184 498.214 367.126 497.971C364.057 497.292 361.111 496.145 358.391 494.571L358.703 494.013C360.823 487.242 366.311 483.772 372.413 480.169C376.049 478.082 379.931 476.456 383.97 475.328L384.082 475.696C385.81 483.277 387.476 490.872 389.078 498.48Z" fill="#171717"/>
<path d="M149.753 477.575C150.043 479.248 150.266 481.167 149.173 482.461C148.275 483.333 147.116 483.885 145.873 484.034C141.075 485.115 136.218 485.92 131.327 486.444C129.824 479.541 128.928 472.52 128.65 465.461L128.605 464.569C132.956 464.357 137.307 464.149 141.657 463.944C143.54 463.902 145.417 463.708 147.268 463.364L147.458 464.29C148.226 468.717 148.991 473.145 149.753 477.575Z" fill="#171717"/>
<path d="M138.341 402.913C138.843 407.632 139.21 412.365 139.441 417.113C137.712 417.537 136.161 417.95 134.979 418.184C130.78 418.849 126.664 419.955 122.697 421.484L122.307 420.558C119.407 413.67 117.618 406.365 117.007 398.916C116.795 396.373 116.807 393.573 118.413 391.598C120.042 389.59 122.83 389.032 125.385 388.608C128.832 388.017 132.904 387.626 135.324 390.159C136.863 391.765 137.254 394.119 137.544 396.339C137.839 398.529 138.1 400.715 138.341 402.913Z" fill="#171717"/>
<path d="M499.459 305.137C499.437 304.981 499.414 304.837 499.392 304.68C498.109 295.823 497.429 285.56 503.932 279.491C507.29 276.345 512.032 274.991 515.321 271.783C519.359 267.834 520.497 261.866 521.367 256.3C524.468 236.488 526.717 216.576 528.116 196.564" stroke="#171717" stroke-width="3.347" stroke-linecap="round" stroke-linejoin="round"/>
<path d="M455.173 305.75C456.567 269.875 457.958 234.004 459.345 198.135" stroke="#171717" stroke-width="3.347" stroke-linecap="round" stroke-linejoin="round"/>
<path d="M456.344 185.809C456.299 190.438 457.044 195.849 460.644 196.819C465.006 198.013 474.878 194.153 479.697 193.719C492.301 192.575 505.003 193.168 517.446 195.482C520.904 196.129 524.753 196.843 527.698 194.924C531.145 192.682 531.725 187.974 531.959 183.88C532.193 180.087 532.282 175.926 530.687 172.624C530.272 171.741 529.723 170.928 529.058 170.214C525.89 166.814 520.714 166.421 516.058 166.332C501.821 166.083 487.582 166.593 473.4 167.86C469.752 168.184 465.971 168.607 462.892 170.593C458.876 173.193 456.824 178.078 456.467 182.853C456.4 183.756 456.355 184.76 456.344 185.809Z" stroke="#171717" stroke-width="3.347" stroke-linecap="round" stroke-linejoin="round"/>
<path d="M464.623 152.2C457.491 150.753 450.087 151.536 443.417 154.442C439.468 156.205 435.597 159.183 434.794 163.422C433.991 167.661 438.062 172.622 442.134 171.197C435.564 173.216 432.797 182.687 437.248 187.93C441.699 193.173 451.504 191.957 454.548 185.788" stroke="#171717" stroke-width="3.347" stroke-linecap="round" stroke-linejoin="round"/>
<path d="M464.622 152.2C464.79 152.245 464.962 152.279 465.135 152.3C464.967 152.265 464.789 152.232 464.622 152.2Z" stroke="#171717" stroke-width="3.347" stroke-linecap="round" stroke-linejoin="round"/>
<path d="M516.2 141.121C516.611 139.215 516.366 137.227 515.505 135.478C514.645 133.728 513.219 132.321 511.459 131.483C506.74 129.464 501.073 131.628 497.515 135.32C493.957 139.012 492.027 143.932 490.197 148.729C485.066 145.918 479.745 143.329 474.044 142.047C470.43 141.247 466.224 141.121 463.491 143.62C460.881 145.985 461.405 151.306 464.618 152.198" stroke="#171717" stroke-width="3.347" stroke-linecap="round" stroke-linejoin="round"/>
<path d="M516.2 141.121C515.509 142.027 514.921 143.007 514.449 144.044C515.316 143.27 515.927 142.25 516.2 141.121V141.121Z" stroke="#171717" stroke-width="3.347" stroke-linecap="round" stroke-linejoin="round"/>
<path d="M533.338 148.048C534.039 146.879 534.419 145.546 534.441 144.183C534.463 142.819 534.125 141.475 533.461 140.284C531.431 136.871 526.913 135.384 523.053 136.369C520.298 137.132 517.884 138.808 516.204 141.121" stroke="#171717" stroke-width="3.347" stroke-linecap="round" stroke-linejoin="round"/>
<path d="M533.338 148.048C532.438 148.84 531.553 149.677 530.683 150.491C531.795 149.966 532.722 149.113 533.338 148.048V148.048Z" stroke="#171717" stroke-width="3.347" stroke-linecap="round" stroke-linejoin="round"/>
<path d="M530.136 172.88C530.314 172.802 530.504 172.713 530.683 172.623C538.311 169.162 544.942 163.831 549.959 157.123C551.699 154.792 553.294 152.036 552.904 149.158C552.29 144.584 546.704 142.086 542.173 143.045C538.815 143.759 535.96 145.767 533.338 148.045" stroke="#171717" stroke-width="3.347" stroke-linecap="round" stroke-linejoin="round"/>
<path d="M512.835 204.461C505.473 203.928 498.114 203.388 490.759 202.843C492.275 217.51 493.796 232.179 495.322 246.85C494.139 247.237 492.883 247.346 491.651 247.17C490.419 246.994 489.243 246.537 488.216 245.835" stroke="#171717" stroke-width="3.347" stroke-linecap="round" stroke-linejoin="round"/>
<path d="M481.343 216.943L472.408 217.443" stroke="#171717" stroke-width="3.347" stroke-linecap="round" stroke-linejoin="round"/>
<path d="M510.214 218.605H501.813" stroke="#171717" stroke-width="3.347" stroke-linecap="round" stroke-linejoin="round"/>
<path d="M166.375 410.732C184.792 406.248 250.352 386.369 309.196 368.666C353.396 355.38 393.809 343.332 407.641 339.975C416.878 337.722 426.828 335.022 432.662 327.526C436.053 323.164 437.671 317.587 441.274 313.403C448.391 305.103 460.796 304.512 471.739 304.557C480.953 304.602 490.171 304.643 499.393 304.68C500.609 304.68 501.814 304.691 503.03 304.691C507.637 304.713 512.456 304.791 516.483 307.011C519.629 308.74 521.96 311.596 524.583 314.039C533.708 322.55 546.313 326.02 558.383 329.199C586.394 336.573 614.398 343.947 642.393 351.32L769.093 384.685C770.164 384.964 771.235 385.254 772.306 385.533" stroke="#171717" stroke-width="3.347" stroke-linecap="round" stroke-linejoin="round"/>
<path d="M309.24 368.242C309.229 368.387 309.207 368.521 309.195 368.666C308.303 377.532 308.258 386.463 309.061 395.338C309.593 401.208 310.491 407.038 311.749 412.796C312.519 416.321 313.701 420.196 316.858 421.954C319.424 423.382 322.592 422.98 325.492 422.454C334.536 420.892 343.414 418.483 352.008 415.259" stroke="#171717" stroke-width="3.347" stroke-linecap="round" stroke-linejoin="round"/>
<path d="M598.473 401.685C598.525 401.687 598.578 401.694 598.629 401.707C608.278 402.707 617.738 404.25 627.387 405.254C629.875 405.511 632.574 405.723 634.705 404.406C637.728 402.532 638.33 398.471 638.632 394.935C639.056 390.002 639.472 385.071 639.881 380.143C640.693 370.648 641.5 361.158 642.3 351.675" stroke="#171717" stroke-width="3.347" stroke-linecap="round" stroke-linejoin="round"/>
<path d="M386.245 499.071C380.934 499.357 375.609 499.19 370.326 498.571C369.255 498.404 368.184 498.214 367.126 497.971C364.058 497.292 361.112 496.145 358.391 494.571C355.543 492.958 353.098 490.719 351.24 488.023C347.135 481.932 346.878 474.123 346.867 466.783C346.834 449.515 347.481 431.845 352.679 415.483C353.505 412.862 354.457 410.278 355.535 407.73C363.366 389.279 379.535 373.182 399.42 370.761C413.453 369.054 427.81 374.386 438.698 383.411C449.586 392.436 457.272 404.84 462.492 417.981C463.274 419.944 464.002 421.923 464.678 423.916C468.578 435.283 471.025 447.13 473.278 458.943C474.338 464.532 475.378 470.254 474.472 475.866C474.168 477.456 473.599 478.983 472.788 480.384C470.334 484.835 465.76 489.23 461.856 490.87" stroke="#171717" stroke-width="3.347" stroke-linecap="round" stroke-linejoin="round"/>
<path d="M358.7 494.006C360.82 487.235 366.308 483.765 372.41 480.162C376.047 478.075 379.929 476.449 383.967 475.321C386.756 474.507 389.6 473.86 392.445 473.302C415.353 468.907 438.976 470.012 461.373 476.526C465.233 477.642 469.037 478.925 472.785 480.375C472.843 480.388 472.899 480.407 472.952 480.431" stroke="#171717" stroke-width="3.347" stroke-linecap="round" stroke-linejoin="round"/>
<path d="M504.6 488.485C504.477 488.429 504.343 488.373 504.221 488.318C501.449 487.261 498.865 485.766 496.568 483.889C494.259 481.803 492.608 478.758 492.998 475.679C493.044 475.345 493.107 475.014 493.188 474.686C494.46 469.886 500.216 467.424 505.202 466.108C505.247 466.097 505.28 466.086 505.325 466.075C527.591 460.218 551.452 459.075 573.707 464.513C579.419 465.9 585.011 467.743 590.429 470.024C593.118 471.01 595.6 472.49 597.747 474.386C598.809 475.35 599.627 476.552 600.133 477.894C600.639 479.237 600.819 480.68 600.658 482.105C600.625 482.305 600.58 482.502 600.524 482.696C599.732 485.619 597.144 487.783 594.567 489.445C587.684 493.907 576.105 497.245 567.967 498.145" stroke="#171717" stroke-width="3.347" stroke-linecap="round" stroke-linejoin="round"/>
<path d="M492.956 474.909C492.978 474.82 493.001 474.731 493.023 474.641C496.969 459.161 502.732 444.202 510.191 430.076C515.695 419.599 522.331 409.757 529.98 400.727C538.023 391.327 547.471 382.499 559.251 378.718C571.031 374.937 585.533 377.446 592.895 387.386C595.985 391.569 597.558 396.567 598.629 401.709C599.086 403.895 599.455 406.104 599.811 408.291C603.805 432.866 607.151 458.679 600.648 482.73C600.648 482.752 600.637 482.763 600.637 482.786" stroke="#171717" stroke-width="3.347" stroke-linecap="round" stroke-linejoin="round"/>
<path d="M465.2 423.728C480.01 424.246 494.736 426.188 509.174 429.528" stroke="#171717" stroke-width="3.347" stroke-linecap="round" stroke-linejoin="round"/>
<path d="M384.081 475.689C385.81 483.275 387.477 490.872 389.081 498.479C391.1 508.106 393.008 517.755 394.737 527.427C398.028 545.71 400.75 564.094 402.624 582.59C403.722 591.832 404.102 601.145 403.762 610.445C403.449 618.093 402.005 625.653 399.478 632.878C394.525 646.499 385.121 657.754 375.305 668.586C372.538 671.643 369.739 674.666 366.994 677.7C364.518 680.444 362.052 683.255 359.676 686.145C350.105 697.813 341.995 710.809 340.422 725.623C340.301 726.745 340.241 727.874 340.244 729.003C340.222 735.651 342.244 742.568 347.818 745.87C351.477 748.034 355.972 748.201 360.223 748.023C396.254 746.495 430.356 722.433 443.865 689C447.688 679.159 450.251 668.874 451.495 658.39C452.901 647.848 453.425 637.128 453.938 626.508C454.228 620.451 454.518 614.397 454.808 608.347C455.924 584.91 457.044 561.469 458.166 538.024C458.913 522.284 459.664 506.54 460.419 490.793C460.631 486.42 460.84 482.044 461.044 477.663" stroke="#171717" stroke-width="3.347" stroke-linecap="round" stroke-linejoin="round"/>
<path d="M339.605 728.6C339.817 728.734 340.029 728.879 340.241 729C350.984 735.816 364.95 736.284 377.109 732.5C389.514 728.64 400.309 720.8 409.972 712.108C427.002 696.921 441.059 678.7 451.425 658.373" stroke="#171717" stroke-width="3.347" stroke-linecap="round" stroke-linejoin="round"/>
<path d="M359.36 686.223C359.46 686.201 359.572 686.167 359.672 686.145C364.863 684.877 370.276 684.827 375.489 685.997C380.703 687.168 385.574 689.529 389.724 692.894" stroke="#171717" stroke-width="3.347" stroke-linecap="round" stroke-linejoin="round"/>
<path d="M375.067 668.687L375.301 668.587C379.537 666.782 384.192 666.193 388.744 666.886C393.296 667.58 397.565 669.529 401.07 672.514" stroke="#171717" stroke-width="3.347" stroke-linecap="round" stroke-linejoin="round"/>
<path d="M389.959 651.061C393.933 650.478 397.988 650.875 401.774 652.217C405.559 653.559 408.959 655.805 411.678 658.761" stroke="#171717" stroke-width="3.347" stroke-linecap="round" stroke-linejoin="round"/>
<path d="M403.189 610.69C403.379 610.601 403.568 610.523 403.758 610.445C419.482 603.635 437.165 602.865 453.421 608.281" stroke="#171717" stroke-width="3.347" stroke-linecap="round" stroke-linejoin="round"/>
<path d="M505.472 466.643C505.126 473.872 504.71 481.097 504.223 488.318C503.074 505.899 501.553 523.442 499.66 540.948C497.06 564.898 493.78 588.759 489.821 612.531C485.85 636.414 481.19 660.175 475.843 683.813L475.81 683.947C473.624 693.563 471.404 692.827 475.442 701.818C478.521 708.656 519.773 750.656 536.595 756.847C553.417 763.038 572.939 764.147 588.824 755.832C591.905 754.39 594.589 752.219 596.644 749.507C599.712 745.007 599.634 739.356 598.083 733.99C597.397 731.606 596.474 729.296 595.328 727.096C590.598 717.926 583.794 710.062 576.628 702.465C570.147 695.605 563.376 688.965 557.564 681.772C552.41 675.372 548.004 668.542 545.249 660.733C539.805 645.316 541.735 628.561 544.714 612.308C545.181 609.731 545.668 607.177 546.175 604.644C550.514 582.478 554.861 560.309 559.215 538.136C561.837 524.75 564.459 511.364 567.08 497.977C569.199 487.19 571.315 476.399 573.427 465.604" stroke="#171717" stroke-width="3.347" stroke-linecap="round" stroke-linejoin="round"/>
<path d="M476.613 683.98C492.933 700.568 507.48 728.601 529.177 737.034C550.874 745.467 576.498 746.148 596.588 734.401" stroke="#171717" stroke-width="3.347" stroke-linecap="round" stroke-linejoin="round"/>
<path d="M577 702.543C576.877 702.521 576.755 702.487 576.632 702.465C564.72 700.07 552.348 701.735 541.493 707.195C541.928 707.128 542.352 707.072 542.787 707.016" stroke="#171717" stroke-width="3.347" stroke-linecap="round" stroke-linejoin="round"/>
<path d="M557.723 681.772H557.567C547.051 681.79 536.751 684.758 527.838 690.339" stroke="#171717" stroke-width="3.347" stroke-linecap="round" stroke-linejoin="round"/>
<path d="M545.129 663.131C533.519 664.145 522.384 668.216 512.857 674.931" stroke="#171717" stroke-width="3.347" stroke-linecap="round" stroke-linejoin="round"/>
<path d="M489.743 612.576C489.772 612.566 489.798 612.55 489.821 612.531C498.288 608.112 507.691 605.786 517.242 605.747C526.792 605.708 536.213 607.958 544.716 612.308C544.828 612.364 544.928 612.42 545.039 612.475" stroke="#171717" stroke-width="3.347" stroke-linecap="round" stroke-linejoin="round"/>
<path d="M370.337 498.725C374.529 510.582 382.441 520.768 392.893 527.762" stroke="#171717" stroke-width="3.347" stroke-linecap="round" stroke-linejoin="round"/>
<path d="M458.508 538.036C472.008 541.636 485.548 542.275 499.448 540.925" stroke="#171717" stroke-width="3.347" stroke-linecap="round" stroke-linejoin="round"/>
<path d="M560.088 538.3C582.131 531.2 594.488 511.048 596.543 489.462" stroke="#171717" stroke-width="3.347" stroke-linecap="round" stroke-linejoin="round"/>
<path d="M139.468 417.437C139.466 417.329 139.459 417.221 139.446 417.114C139.212 412.373 138.845 407.64 138.346 402.914C138.101 400.714 137.846 398.53 137.554 396.344C137.264 394.124 136.874 391.77 135.334 390.164C132.913 387.632 128.842 388.022 125.395 388.613C122.84 389.037 120.052 389.595 118.423 391.603C116.817 393.577 116.805 396.377 117.017 398.921C117.628 406.37 119.417 413.675 122.317 420.563" stroke="#171717" stroke-width="3.347" stroke-linecap="round" stroke-linejoin="round"/>
<path d="M128.647 465.46C128.925 472.519 129.821 479.54 131.324 486.443C136.215 485.92 141.072 485.115 145.87 484.033C147.113 483.884 148.272 483.332 149.17 482.46C150.263 481.166 150.04 479.247 149.75 477.574C148.98 473.145 148.214 468.716 147.45 464.288" stroke="#171717" stroke-width="3.347" stroke-linecap="round" stroke-linejoin="round"/>
<path d="M139.446 417.113C137.717 417.537 136.166 417.95 134.984 418.184C130.786 418.849 126.669 419.955 122.702 421.484C121.216 422.101 119.793 422.859 118.452 423.748C118.229 423.904 117.995 424.06 117.772 424.228C116.166 425.331 114.889 426.85 114.08 428.623C113.628 429.637 113.474 430.758 113.636 431.856C113.798 432.954 114.269 433.983 114.995 434.823C116.167 435.87 117.664 436.481 119.234 436.552C119.881 436.63 120.528 436.664 121.153 436.686C128.512 436.887 135.865 436.129 143.028 434.433C145.431 433.929 147.764 433.138 149.978 432.079C150.702 431.712 151.399 431.295 152.064 430.83C154.719 428.93 156.794 425.966 156.883 422.709C157.16 413.142 146.708 415.3 139.446 417.113Z" stroke="#171717" stroke-width="3.347" stroke-linecap="round" stroke-linejoin="round"/>
<path d="M119.154 437.137C117.377 437.995 115.747 439.129 114.324 440.495C113.618 441.184 113.069 442.017 112.713 442.937C112.357 443.857 112.202 444.842 112.26 445.827C112.55 448.315 114.681 450.256 117.06 451.081C117.216 451.137 117.384 451.193 117.54 451.237C120.117 451.973 122.85 451.672 125.505 451.36C130.179 450.813 134.853 450.27 139.527 449.731C142.788 449.515 146.001 448.828 149.065 447.69C149.455 447.523 149.846 447.333 150.225 447.132C152.799 445.87 154.782 443.659 155.758 440.963C156.729 437.851 155.49 433.969 152.534 432.597" stroke="#171717" stroke-width="3.347" stroke-linecap="round" stroke-linejoin="round"/>
<path d="M116.778 452.475C114.558 454.795 112.16 457.807 113.153 460.853C113.511 461.754 114.081 462.555 114.816 463.188C115.55 463.821 116.426 464.268 117.37 464.49C119.258 464.912 121.201 465.029 123.126 464.836L128.603 464.568C132.953 464.356 137.304 464.148 141.655 463.943C143.538 463.901 145.414 463.707 147.266 463.363C148.076 463.201 148.871 462.969 149.642 462.671C152.163 461.678 154.45 459.671 155.03 457.026C155.219 455.938 155.18 454.822 154.912 453.75C154.645 452.678 154.157 451.673 153.479 450.801C152.662 449.659 151.685 448.641 150.579 447.778" stroke="#171717" stroke-width="3.347" stroke-linecap="round" stroke-linejoin="round"/>
<path d="M117.18 408.869C115.513 409.236 114.019 410.156 112.941 411.48C111.863 412.804 111.266 414.453 111.245 416.16C111.224 417.867 111.781 419.531 112.826 420.881C113.871 422.23 115.342 423.187 117 423.594" stroke="#171717" stroke-width="3.347" stroke-linecap="round" stroke-linejoin="round"/>
<path d="M138.8 402.868C148.319 402.558 157.673 405.41 165.4 410.978" stroke="#171717" stroke-width="3.347" stroke-linecap="round" stroke-linejoin="round"/>
<path d="M154.07 450.322C202.275 423.806 254.447 405.254 308.57 395.382" stroke="#171717" stroke-width="3.347" stroke-linecap="round" stroke-linejoin="round"/>
<path d="M816.8 385.153C817.681 382.353 818.566 379.56 819.455 376.775C820.046 374.875 820.649 372.975 821.255 371.075C822.17 368.163 823.084 364.928 821.824 362.14C820.229 358.581 815.878 357.332 812.063 356.495C809.653 355.96 806.798 355.547 805.002 357.242C804.052 358.34 803.436 359.687 803.228 361.124C802.146 365.631 801.149 370.156 800.238 374.7C799.838 376.73 799.446 378.783 799.078 380.824" stroke="#171717" stroke-width="3.347" stroke-linecap="round" stroke-linejoin="round"/>
<path d="M788.849 395.773C789.005 395.885 789.149 395.996 789.306 396.097C793.132 398.629 797.406 398.473 801.733 399.109C807.076 399.901 812.286 401.474 817.652 402.221C818.742 402.399 819.848 402.466 820.952 402.421C822.038 402.401 823.098 402.077 824.009 401.484C826.519 399.766 826.664 395.884 825.069 393.296C824.666 392.663 824.19 392.079 823.652 391.556C821.943 390.026 819.965 388.827 817.818 388.02C817.204 387.763 816.58 387.507 815.955 387.273C810.902 385.47 805.737 383.994 800.494 382.856C799.1 382.521 797.683 382.187 796.266 381.975C794.979 381.769 793.671 381.724 792.373 381.841C789.64 382.12 786.862 383.492 785.646 385.946C783.974 389.3 785.837 393.509 788.849 395.773Z" stroke="#171717" stroke-width="3.347" stroke-linecap="round" stroke-linejoin="round"/>
<path d="M788.369 397.145C788.162 397.123 787.953 397.112 787.744 397.112C786.721 397.1 785.714 397.371 784.835 397.895C783.956 398.419 783.239 399.176 782.762 400.082C782.286 400.987 782.069 402.007 782.135 403.028C782.201 404.049 782.548 405.033 783.137 405.869C783.783 406.742 784.613 407.462 785.569 407.977C786.547 408.494 787.565 408.931 788.614 409.282C796.179 411.97 804.004 413.858 811.962 414.915C813.596 415.188 815.261 415.222 816.904 415.015C818.238 414.844 819.482 414.248 820.451 413.315C823.051 410.694 822.113 406.354 820.986 402.84" stroke="#171717" stroke-width="3.347" stroke-linecap="round" stroke-linejoin="round"/>
<path d="M784.855 408.7C782.75 409.373 780.8 410.461 779.121 411.9C778.301 412.675 777.671 413.63 777.28 414.689C776.887 415.703 776.817 416.813 777.08 417.868C777.805 420.59 780.672 422.062 783.26 423.156C783.885 423.424 784.498 423.68 785.123 423.937C790.294 426.166 795.651 427.935 801.131 429.225C801.376 429.281 801.631 429.337 801.878 429.392C804.883 430.144 808.006 430.299 811.07 429.849C812.601 429.607 814.06 429.033 815.345 428.168C816.63 427.302 817.711 426.167 818.511 424.84C819.961 422.118 819.571 418.34 817.161 416.395" stroke="#171717" stroke-width="3.347" stroke-linecap="round" stroke-linejoin="round"/>
<path d="M784.42 425.613C783.36 427.099 782.571 428.761 782.089 430.521C781.852 431.405 781.849 432.336 782.08 433.221C782.311 434.107 782.767 434.918 783.405 435.574C784.4 436.325 785.558 436.829 786.785 437.047C790.042 437.895 793.523 438.731 796.724 437.683C799.925 436.635 802.469 432.875 800.985 429.852" stroke="#171717" stroke-width="3.347" stroke-linecap="round" stroke-linejoin="round"/>
<path d="M769.171 384.406C778.445 379.291 788.58 375.922 799.071 374.467" stroke="#171717" stroke-width="3.347" stroke-linecap="round" stroke-linejoin="round"/>
<path d="M820.7 377.166C822.282 377.296 823.789 377.899 825.024 378.896C826.26 379.893 827.167 381.239 827.627 382.758C828.088 384.277 828.081 385.9 827.608 387.415C827.134 388.93 826.216 390.268 824.972 391.255C825.251 391.043 825.53 390.82 825.809 390.608" stroke="#171717" stroke-width="3.347" stroke-linecap="round" stroke-linejoin="round"/>
<path d="M639.971 380.156C685.317 391.601 730.655 403.042 775.987 414.481" stroke="#171717" stroke-width="3.347" stroke-linecap="round" stroke-linejoin="round"/>
<path d="M125.39 388.612C123.059 385.143 113.208 340.656 91.166 346.166C6.12897 367.428 2.58197 872.962 445.513 880.045C888.444 887.128 988.841 329.633 851.832 324.9C810.357 323.472 812.064 356.492 812.064 356.492" stroke="#171717" stroke-width="3.347" stroke-linecap="round" stroke-linejoin="round"/>
<path d="M550.374 845.39C550.921 828.33 551.469 811.27 552.016 794.209" stroke="#171717" stroke-width="3.347" stroke-linecap="round" stroke-linejoin="round"/>
<path d="M504.1 813.109C505.181 794.475 506.262 775.842 507.344 757.209" stroke="#171717" stroke-width="3.347" stroke-linecap="round" stroke-linejoin="round"/>
<path d="M421.346 848.467C424.279 814.371 427.212 780.276 430.146 746.18" stroke="#171717" stroke-width="3.347" stroke-linecap="round" stroke-linejoin="round"/>
<path d="M390.167 815.485C390.875 803.144 391.583 790.803 392.292 778.462" stroke="#171717" stroke-width="3.347" stroke-linecap="round" stroke-linejoin="round"/>
<path d="M321.8 759.069C318.043 752.619 315.909 745.353 315.582 737.896C315.254 730.438 316.742 723.013 319.918 716.258" stroke="#171717" stroke-width="3.347" stroke-linecap="round" stroke-linejoin="round"/>
<path d="M605.138 770.776C618.244 758.76 622.963 738.446 616.495 721.883" stroke="#171717" stroke-width="3.347" stroke-linecap="round" stroke-linejoin="round"/>
<path d="M353.792 536.7C346.345 532.185 340.182 525.833 335.893 518.255C331.603 510.676 329.33 502.123 329.292 493.414" stroke="#171717" stroke-width="3.347" stroke-linecap="round" stroke-linejoin="round"/>
<path d="M584.518 558.834C604.677 551.715 619.779 532.05 621.456 510.734" stroke="#171717" stroke-width="3.347" stroke-linecap="round" stroke-linejoin="round"/>
<path d="M568.762 161.874C578.208 165.795 588.522 167.152 598.662 165.81" stroke="#171717" stroke-width="3.347" stroke-linecap="round" stroke-linejoin="round"/>
<path d="M566.329 136.628C582.88 125.432 598.22 112.544 612.1 98.17" stroke="#171717" stroke-width="3.347" stroke-linecap="round" stroke-linejoin="round"/>
<path d="M541.468 127.084C544.692 117.924 547.917 108.764 551.142 99.603" stroke="#171717" stroke-width="3.347" stroke-linecap="round" stroke-linejoin="round"/>
<path d="M215.7 343.345C209.606 329.215 216.457 311.965 228.432 302.302C240.407 292.639 256.285 289.259 271.643 288.31C287.001 287.361 302.487 288.534 317.752 286.598C331.395 284.868 344.93 280.531 356.012 272.387C367.094 264.243 375.528 252.025 377.43 238.404C379.332 224.783 374.023 209.969 362.83 201.972C351.637 193.975 334.784 194.19 324.807 203.655C318.999 209.165 315.917 218.401 319.829 225.385C322.601 230.334 328.329 233.13 333.987 233.509C339.645 233.888 345.253 232.158 350.425 229.828C363.274 224.038 374.498 214.112 380.451 201.338C386.404 188.564 386.629 172.921 379.73 160.632C372.831 148.343 358.504 140.215 344.521 141.969" stroke="#171717" stroke-width="3.347" stroke-linecap="round" stroke-linejoin="round"/>
<path d="M693.9 432.741C686.983 451.089 686.723 472.283 695.207 489.961C703.691 507.639 721.417 521.095 740.977 522.471C749.54 523.071 758.677 521.212 765.003 515.403C771.329 509.594 773.822 499.261 769.095 492.094C765.639 486.855 758.995 484.229 752.739 484.677C746.483 485.125 740.644 488.31 736.051 492.587C722.916 504.817 719.88 524.835 722.872 542.531C725.864 560.227 733.904 576.595 739.961 593.49C746.018 610.385 750.116 628.977 744.968 646.17C742.608 654.051 738.209 661.492 731.655 666.47C725.101 671.448 716.262 673.683 708.375 671.344C699.408 668.684 692.775 660.415 690.539 651.332C688.303 642.249 690.014 632.542 693.677 623.932" stroke="#171717" stroke-width="3.347" stroke-linecap="round" stroke-linejoin="round"/>
<path d="M122.127 508.717C109.672 503.317 102.063 488.572 104.871 475.289" stroke="#171717" stroke-width="3.347" stroke-linecap="round" stroke-linejoin="round"/>
<path d="M44.8311 365.794C46.8627 356.966 51.2574 348.856 57.5445 342.334C63.8316 335.812 71.7743 331.123 80.5221 328.769" stroke="#171717" stroke-width="3.347" stroke-linecap="round" stroke-linejoin="round"/>
<path d="M794.758 457.741C810.374 458.899 826.041 447.888 830.243 432.804" stroke="#171717" stroke-width="3.347" stroke-linecap="round" stroke-linejoin="round"/>
<path d="M924.831 371.349C923.546 359.364 919.817 347.771 913.875 337.284C907.933 326.797 899.904 317.64 890.284 310.378" stroke="#171717" stroke-width="3.347" stroke-linecap="round" stroke-linejoin="round"/>
<path d="M457.633 183.155C460.556 187.155 466.152 188.404 471.033 187.566C475.914 186.728 480.314 184.191 484.684 181.854C489.054 179.517 493.692 177.291 498.647 177.172C509.434 176.913 519.081 186.61 529.71 184.753" stroke="#171717" stroke-width="3.347" stroke-linecap="round" stroke-linejoin="round"/>
<path d="M331.933 421.165C325.67 403.319 322.658 384.494 323.041 365.585" stroke="#171717" stroke-width="3.347" stroke-linecap="round" stroke-linejoin="round"/>
<path d="M619.852 404.953C622.01 386.692 625.548 368.62 630.438 350.894" stroke="#171717" stroke-width="3.347" stroke-linecap="round" stroke-linejoin="round"/>
<path d="M597.423 355.2L583.2 364.037" stroke="#171717" stroke-width="3.347" stroke-linecap="round" stroke-linejoin="round"/>
<path d="M548.292 354.732L541.1 344.123" stroke="#171717" stroke-width="3.347" stroke-linecap="round" stroke-linejoin="round"/>
<path d="M507.135 389.8L518.653 376.649" stroke="#171717" stroke-width="3.347" stroke-linecap="round" stroke-linejoin="round"/>
<path d="M495.516 337.768L488.167 329.894" stroke="#171717" stroke-width="3.347" stroke-linecap="round" stroke-linejoin="round"/>
<path d="M465.7 384.572L475.032 372.408" stroke="#171717" stroke-width="3.347" stroke-linecap="round" stroke-linejoin="round"/>
<path d="M453.52 348.792L446.696 342.492" stroke="#171717" stroke-width="3.347" stroke-linecap="round" stroke-linejoin="round"/>
<path d="M406.7 360.8C408.967 357.644 411.234 354.488 413.5 351.331" stroke="#171717" stroke-width="3.347" stroke-linecap="round" stroke-linejoin="round"/>
<path d="M363.7 372.468L355.764 364.656" stroke="#171717" stroke-width="3.347" stroke-linecap="round" stroke-linejoin="round"/>
<path d="M339.066 402.327L345.366 393.927" stroke="#171717" stroke-width="3.347" stroke-linecap="round" stroke-linejoin="round"/>
<path d="M464.005 324.632L471.883 315.711" stroke="#171717" stroke-width="3.347" stroke-linecap="round" stroke-linejoin="round"/>
<path d="M489.047 410.89L482.854 403.97" stroke="#171717" stroke-width="3.347" stroke-linecap="round" stroke-linejoin="round"/>
<path d="M442.509 497.353L443.397 507.866" stroke="#171717" stroke-width="3.347" stroke-linecap="round" stroke-linejoin="round"/>
<path d="M417.737 523.081C417.909 526.231 418.079 529.381 418.249 532.531" stroke="#171717" stroke-width="3.347" stroke-linecap="round" stroke-linejoin="round"/>
<path d="M408.776 488.422C408.614 491.048 408.452 493.674 408.291 496.299" stroke="#171717" stroke-width="3.347" stroke-linecap="round" stroke-linejoin="round"/>
<path d="M441.971 550.9V559.824" stroke="#171717" stroke-width="3.347" stroke-linecap="round" stroke-linejoin="round"/>
<path d="M418.348 577.147C417.655 579.19 417.655 581.404 418.348 583.447" stroke="#171717" stroke-width="3.347" stroke-linecap="round" stroke-linejoin="round"/>
<path d="M505.007 583.451L503.96 593.425" stroke="#171717" stroke-width="3.347" stroke-linecap="round" stroke-linejoin="round"/>
<path d="M533.82 571.375C534.346 574.874 534.873 578.374 535.399 581.875" stroke="#171717" stroke-width="3.347" stroke-linecap="round" stroke-linejoin="round"/>
<path d="M521.239 532.526L518.089 541.975" stroke="#171717" stroke-width="3.347" stroke-linecap="round" stroke-linejoin="round"/>
<path d="M546.484 515.722C546.824 518.823 547.164 521.923 547.503 525.022C547.498 524.548 547.493 524.074 547.487 523.599" stroke="#171717" stroke-width="3.347" stroke-linecap="round" stroke-linejoin="round"/>
<path d="M537.067 491.577C537.134 493.85 537.203 496.123 537.275 498.395" stroke="#171717" stroke-width="3.347" stroke-linecap="round" stroke-linejoin="round"/>
<path d="M524.389 476.881L522.289 483.181" stroke="#171717" stroke-width="3.347" stroke-linecap="round" stroke-linejoin="round"/>
<path d="M650.117 195.047L652.48 176.149" stroke="url(#paint4_linear_36_2328)" stroke-width="3.347" stroke-linecap="round" stroke-linejoin="round"/>
<path d="M639.684 183.433L662.126 186.583" stroke="url(#paint5_linear_36_2328)" stroke-width="3.347" stroke-linecap="round" stroke-linejoin="round"/>
<path d="M578.794 247.273L588.819 231.08" stroke="#171717" stroke-width="3.347" stroke-linecap="round" stroke-linejoin="round"/>
<path d="M574.151 232.367L593.237 244.584" stroke="#171717" stroke-width="3.347" stroke-linecap="round" stroke-linejoin="round"/>
<path d="M251.435 234.009L260.443 227.052C260.519 226.993 260.611 226.959 260.707 226.954C260.803 226.949 260.899 226.974 260.98 227.025C261.062 227.076 261.126 227.151 261.163 227.239C261.201 227.328 261.211 227.426 261.191 227.52L258.87 238.662C258.851 238.753 258.859 238.848 258.894 238.934C258.928 239.02 258.988 239.094 259.065 239.146L268.465 245.563C268.544 245.617 268.605 245.694 268.64 245.784C268.674 245.874 268.68 245.972 268.657 246.066C268.633 246.159 268.582 246.243 268.509 246.306C268.437 246.369 268.346 246.409 268.251 246.419L256.937 247.655C256.844 247.665 256.757 247.702 256.686 247.762C256.615 247.822 256.563 247.901 256.537 247.99L253.337 258.913C253.31 259.005 253.255 259.087 253.18 259.148C253.106 259.208 253.014 259.244 252.918 259.25C252.822 259.257 252.726 259.234 252.644 259.185C252.562 259.135 252.496 259.062 252.457 258.974L247.786 248.6C247.748 248.515 247.685 248.444 247.606 248.395C247.527 248.345 247.436 248.32 247.343 248.323L235.966 248.656C235.87 248.659 235.775 248.632 235.694 248.58C235.614 248.527 235.552 248.451 235.516 248.362C235.48 248.273 235.472 248.175 235.493 248.081C235.515 247.988 235.565 247.903 235.636 247.838L244.063 240.188C244.132 240.126 244.18 240.044 244.203 239.954C244.226 239.864 244.221 239.769 244.19 239.681L240.357 228.964C240.324 228.874 240.32 228.775 240.345 228.682C240.37 228.589 240.423 228.507 240.497 228.445C240.571 228.383 240.662 228.345 240.757 228.337C240.853 228.328 240.949 228.349 241.033 228.397L250.913 234.048C250.994 234.094 251.087 234.115 251.18 234.108C251.273 234.101 251.362 234.067 251.435 234.009V234.009Z" stroke="#171717" stroke-width="3.347" stroke-miterlimit="10"/>
<path d="M661.5 256.484L669.9 251.069C669.971 251.024 670.054 251.001 670.138 251.004C670.222 251.007 670.303 251.036 670.371 251.087C670.438 251.137 670.489 251.207 670.515 251.287C670.541 251.367 670.543 251.453 670.519 251.534L667.66 261.107C667.636 261.185 667.636 261.269 667.661 261.347C667.685 261.425 667.731 261.494 667.795 261.545L675.539 267.857C675.604 267.91 675.652 267.983 675.675 268.064C675.698 268.145 675.696 268.231 675.669 268.311C675.641 268.391 675.59 268.46 675.522 268.51C675.454 268.56 675.372 268.588 675.288 268.59L665.3 268.829C665.218 268.831 665.139 268.857 665.072 268.904C665.005 268.951 664.954 269.017 664.925 269.093L661.315 278.409C661.285 278.488 661.231 278.556 661.161 278.603C661.091 278.651 661.008 278.675 660.924 278.674C660.839 278.673 660.757 278.645 660.689 278.596C660.62 278.546 660.568 278.477 660.541 278.397L657.227 268.972C657.2 268.895 657.15 268.828 657.085 268.779C657.02 268.73 656.941 268.702 656.86 268.697L646.884 268.142C646.8 268.137 646.719 268.107 646.653 268.055C646.586 268.003 646.537 267.932 646.512 267.851C646.488 267.771 646.488 267.685 646.514 267.604C646.539 267.524 646.589 267.453 646.656 267.402L654.596 261.338C654.661 261.289 654.71 261.221 654.736 261.144C654.763 261.066 654.766 260.983 654.745 260.904L652.19 251.245C652.168 251.164 652.172 251.077 652.201 250.998C652.23 250.919 652.283 250.85 652.352 250.802C652.421 250.754 652.503 250.727 652.588 250.727C652.672 250.727 652.754 250.752 652.824 250.8L661.045 256.478C661.112 256.524 661.19 256.548 661.271 256.549C661.352 256.551 661.432 256.528 661.5 256.484V256.484Z" fill="#171717"/>
<path d="M309.793 603.471L319.818 587.278" stroke="#171717" stroke-width="3.347" stroke-linecap="round" stroke-linejoin="round"/>
<path d="M305.151 588.564L324.237 600.782" stroke="#171717" stroke-width="3.347" stroke-linecap="round" stroke-linejoin="round"/>
<path d="M286.2 495.355L294.6 489.94C294.671 489.894 294.754 489.872 294.838 489.875C294.922 489.878 295.004 489.907 295.071 489.957C295.138 490.008 295.189 490.078 295.215 490.158C295.242 490.238 295.243 490.324 295.219 490.405L292.36 499.978C292.336 500.056 292.337 500.14 292.361 500.218C292.385 500.296 292.431 500.365 292.495 500.416L300.239 506.728C300.304 506.781 300.352 506.853 300.375 506.935C300.398 507.016 300.396 507.102 300.369 507.182C300.341 507.262 300.29 507.331 300.222 507.381C300.154 507.431 300.072 507.459 299.988 507.461L290 507.7C289.918 507.702 289.839 507.728 289.772 507.775C289.706 507.822 289.654 507.888 289.625 507.964L286.015 517.28C285.985 517.359 285.931 517.427 285.861 517.474C285.791 517.521 285.708 517.546 285.624 517.545C285.539 517.543 285.457 517.516 285.389 517.467C285.32 517.417 285.269 517.348 285.241 517.268L281.927 507.843C281.9 507.766 281.85 507.699 281.785 507.65C281.72 507.601 281.641 507.572 281.56 507.568L271.584 507.013C271.5 507.008 271.419 506.978 271.353 506.926C271.286 506.874 271.237 506.803 271.213 506.722C271.188 506.642 271.188 506.556 271.214 506.475C271.239 506.395 271.289 506.324 271.356 506.273L279.296 500.209C279.361 500.16 279.41 500.092 279.436 500.015C279.463 499.937 279.466 499.854 279.445 499.775L276.89 490.116C276.868 490.034 276.873 489.948 276.901 489.869C276.93 489.79 276.983 489.721 277.052 489.673C277.121 489.624 277.203 489.598 277.288 489.598C277.372 489.598 277.454 489.623 277.524 489.671L285.745 495.349C285.812 495.394 285.891 495.419 285.972 495.42C286.052 495.421 286.132 495.399 286.2 495.355Z" fill="url(#paint6_linear_36_2328)"/>
<path fill-rule="evenodd" clip-rule="evenodd" d="M493.187 474.685C494.458 469.889 500.215 467.423 505.201 466.107C505.232 466.102 505.257 466.094 505.281 466.087C505.295 466.083 505.308 466.078 505.323 466.075C527.589 460.218 551.45 459.069 573.704 464.513C579.417 465.9 585.009 467.743 590.427 470.024C591.146 470.288 591.851 470.587 592.539 470.92C595.457 444.462 593.441 417.68 586.582 391.938C586.344 391.045 586.875 390.128 587.768 389.89C588.661 389.652 589.578 390.183 589.816 391.076C596.911 417.701 598.903 445.421 595.697 472.774C596.408 473.271 597.092 473.809 597.745 474.386C598.807 475.35 599.625 476.552 600.131 477.894C600.637 479.236 600.817 480.68 600.656 482.105C600.623 482.304 600.578 482.502 600.522 482.696L600.645 482.729C607.147 458.678 603.802 432.865 599.808 408.29C599.452 406.103 599.083 403.894 598.626 401.708C597.555 396.566 595.982 391.568 592.892 387.385C585.53 377.445 571.028 374.936 559.248 378.717C547.468 382.498 538.02 391.326 529.977 400.726C522.327 409.756 515.691 419.598 510.188 430.075C502.728 444.201 496.965 459.16 493.02 474.64L493.187 474.685Z" fill="#171717"/>
<path fill-rule="evenodd" clip-rule="evenodd" d="M351.239 488.016C353.097 490.712 355.542 492.951 358.39 494.564L358.702 494.008C360.822 487.236 366.312 483.764 372.412 480.164C376.049 478.078 379.931 476.452 383.969 475.323C386.758 474.504 389.602 473.862 392.447 473.304C415.355 468.909 438.978 470.014 461.375 476.528C465.235 477.644 469.039 478.927 472.787 480.377C473.598 478.976 474.167 477.449 474.471 475.859C475.377 470.247 474.337 464.525 473.277 458.936C471.024 447.123 468.577 435.276 464.677 423.909C464.001 421.916 463.273 419.938 462.491 417.974C457.271 404.833 449.585 392.429 438.697 383.404C427.809 374.379 413.452 369.047 399.419 370.754C379.534 373.175 363.365 389.272 355.534 407.723C354.456 410.271 353.504 412.855 352.678 415.476C347.48 431.838 346.833 449.508 346.866 466.776C346.877 474.116 347.139 481.925 351.239 488.016ZM421.168 376.284C420.381 375.799 419.35 376.043 418.865 376.83C418.38 377.617 418.625 378.648 419.412 379.133C443.885 394.215 459.062 423.294 457.44 451.995C457.388 452.918 458.094 453.708 459.017 453.76C459.939 453.812 460.73 453.106 460.782 452.184C462.474 422.256 446.687 392.01 421.168 376.284Z" fill="#171717"/>
<g opacity="0.1">
<path d="M359.023 740.093C354.838 722.964 364.614 706.036 375.401 693.412C386.567 680.345 399.367 668.412 408.632 653.822C418.816 637.789 421.76 619.428 421.386 600.7C420.986 580.843 418.886 560.912 416.286 541.236C414.757 529.683 412.986 518.166 410.886 506.701C409.906 501.346 408.86 496.003 407.748 490.674C406.582 485.081 404.457 479.015 404.517 473.287C404.497 471.828 404.146 470.393 403.49 469.089C402.833 467.786 401.889 466.65 400.728 465.766C399.567 464.881 398.221 464.273 396.79 463.986C395.36 463.7 393.882 463.742 392.471 464.111C386.406 465.782 383.954 472.676 386.785 478.09C388.98 482.29 389.542 487.83 390.535 492.436C391.616 497.443 392.639 502.462 393.603 507.494C395.473 517.241 397.123 527.027 398.554 536.852C401.483 556.523 403.401 576.332 404.299 596.2C405.068 614.572 403.252 631.755 392.806 647.352C383.251 661.616 369.906 672.829 360.006 686.838C348.544 703.049 340.606 723.663 347.006 743.407C349.472 751.015 360.945 747.932 359.03 740.093H359.023Z" fill="#171717"/>
</g>
<g opacity="0.1">
<path d="M590.478 742.04C570.24 753.896 545.644 749.951 527.262 736.505C517.946 729.69 510.139 720.767 503.232 711.586C500.285 707.78 496.949 704.292 493.279 701.178C489.193 697.556 487.149 695.058 487.82 689.384C488.43 684.235 490.52 679.234 492.258 674.384C494.299 668.541 495.98 662.578 497.29 656.529C500.448 642.574 503.323 628.559 505.915 614.485C510.981 586.981 515.015 559.31 518.015 531.473C519.696 515.931 521.358 500.413 522.369 484.81C522.874 477.02 523.296 469.225 523.635 461.426C523.817 457.202 523.976 452.977 524.111 448.75C524.419 444.667 523.585 440.579 521.702 436.944C519.717 432.888 513.408 433.181 511.34 436.944C509.441 440.235 508.459 443.975 508.499 447.775C508.378 451.675 508.263 455.575 508.114 459.475C507.816 467.275 507.434 475.07 506.969 482.861C506.08 497.775 505.132 512.716 503.712 527.59C500.868 557.364 496.478 587.025 491.025 616.428C488.22 631.55 485.539 646.913 481.624 661.795C478.601 673.288 471.868 684.761 474.346 697.036C476.469 707.557 487.227 713.064 493.395 721.067C500.918 731.06 509.961 739.812 520.194 747.005C542.409 762.293 574.05 767.848 596.16 749.398C600.309 745.936 594.98 739.398 590.479 742.036L590.478 742.04Z" fill="#171717"/>
</g>
<g opacity="0.1">
<path d="M316.663 421.451C319.311 424.871 322.989 424.287 326.821 424.363C331.682 424.463 335.55 423.595 340.246 422.389C348.528 420.262 356.761 417.956 365.007 415.689C377.439 412.276 372.147 392.861 359.674 396.346C351.941 398.506 305.737 407.332 316.663 421.446V421.451Z" fill="#171717"/>
</g>
<g opacity="0.1">
<path d="M601.585 403.985C607.765 405.146 614.015 405.898 620.294 406.239C626.853 406.756 633.578 408.802 638.689 403.484C641.108 400.966 641.977 396.605 639.971 393.543C635.611 386.885 628.435 387.528 621.264 387.17C614.693 386.738 608.095 387.018 601.585 388.006C593.485 389.357 593.876 402.333 601.585 403.985V403.985Z" fill="#171717"/>
</g>
<g opacity="0.1">
<path d="M468.993 303.313C472.283 295.988 472.625 286.703 473.211 278.747C473.866 269.852 474.414 260.952 474.857 252.047C475.724 234.565 476.184 217.07 476.238 199.562C476.277 189.488 460.508 189.471 460.582 199.562C460.709 216.731 460.457 233.898 459.826 251.062C459.502 259.638 459.081 268.21 458.562 276.778C458.078 284.759 456.709 294.17 458.712 301.978C459.83 306.336 466.957 307.855 468.993 303.322V303.313Z" fill="#171717"/>
</g>
<defs>
<linearGradient id="paint0_linear_36_2328" x1="494.215" y1="166.269" x2="494.215" y2="197.048" gradientUnits="userSpaceOnUse">
<stop stop-color="#D89EFF"/>
<stop offset="1" stop-color="#8238E0"/>
</linearGradient>
<linearGradient id="paint1_linear_36_2328" x1="475.443" y1="304.557" x2="475.443" y2="430.075" gradientUnits="userSpaceOnUse">
<stop stop-color="#D89EFF"/>
<stop offset="1" stop-color="#8238E0"/>
</linearGradient>
<linearGradient id="paint2_linear_36_2328" x1="536.963" y1="605.748" x2="536.963" y2="743.301" gradientUnits="userSpaceOnUse">
<stop stop-color="#D89EFF"/>
<stop offset="1" stop-color="#8238E0"/>
</linearGradient>
<linearGradient id="paint3_linear_36_2328" x1="397.521" y1="604.712" x2="397.521" y2="734.871" gradientUnits="userSpaceOnUse">
<stop stop-color="#D89EFF"/>
<stop offset="1" stop-color="#8238E0"/>
</linearGradient>
<linearGradient id="paint4_linear_36_2328" x1="651.299" y1="176.149" x2="651.299" y2="195.047" gradientUnits="userSpaceOnUse">
<stop stop-color="#D89EFF"/>
<stop offset="1" stop-color="#8238E0"/>
</linearGradient>
<linearGradient id="paint5_linear_36_2328" x1="650.905" y1="183.433" x2="650.905" y2="186.583" gradientUnits="userSpaceOnUse">
<stop stop-color="#D89EFF"/>
<stop offset="1" stop-color="#8238E0"/>
</linearGradient>
<linearGradient id="paint6_linear_36_2328" x1="285.793" y1="489.598" x2="285.793" y2="517.545" gradientUnits="userSpaceOnUse">
<stop stop-color="#D89EFF"/>
<stop offset="1" stop-color="#8238E0"/>
</linearGradient>
</defs>
</svg>
