<svg width="960" height="960" viewBox="0 0 960 960" fill="none" xmlns="http://www.w3.org/2000/svg">
<g clip-path="url(#clip0_417_704)">
<path d="M846.6 451.559C845.231 446.299 843.7 441.07 841.981 435.909L842.306 435.801C855.395 440.154 867.765 447.363 876.706 457.862C885.647 468.361 890.888 482.356 889.332 496.062C888.16 506.304 883.344 515.867 877.09 524.081C869.933 533.386 860.977 541.156 850.755 546.929C840.533 552.701 829.254 556.358 817.59 557.681L816.79 557.651L818.582 512.051L816.918 511.116C823.318 510.731 829.652 509.559 835.079 506.26C843.618 501.05 848.513 491.16 849.773 481.234C851.033 471.308 849.1 461.25 846.6 451.559Z" fill="url(#paint0_linear_417_704)"/>
<path d="M827.705 280.218L822.692 411.453L821.254 449.194L821.412 450.287C815.778 451.055 810.194 451.627 804.551 452.06L804.423 450.46L810.962 280.213C811.393 269.281 807.586 258.605 800.336 250.411C793.086 242.218 782.953 237.14 772.05 236.238L772.06 236.09L783.238 236.14C789.119 235.856 794.996 236.799 800.493 238.908C805.991 241.018 810.989 244.248 815.171 248.393C819.353 252.539 822.627 257.509 824.785 262.988C826.942 268.466 827.937 274.334 827.705 280.218Z" fill="#171717"/>
<path d="M780.5 662.52C782.548 670.449 780.461 687.339 776.186 689.27L593.993 771.438C564.732 784.625 531.628 786.527 501.05 776.776L500.685 776.658L434.885 755.651L434.461 754.981C438.41 752.519 442.362 750.06 446.319 747.604C448.833 746.227 451.09 744.424 452.987 742.276L453.787 742.345L501.052 757.079C531.63 766.829 564.734 764.927 593.995 751.741L776.188 669.572C777.482 669.008 778.528 667.996 779.135 666.722C779.741 665.447 779.867 663.997 779.488 662.638L780.5 662.52Z" fill="#171717"/>
<path d="M816.793 557.648L814.528 615.106C813.582 639.265 792.828 658.589 768.75 656.373H756.9L756.871 656.668L751.68 656.195L751.749 655.466C757.453 655.993 763.204 655.352 768.652 653.583C774.101 651.815 779.132 648.955 783.439 645.179C787.746 641.403 791.239 636.789 793.705 631.619C796.171 626.448 797.559 620.83 797.783 615.106L801.84 512.048L801.87 511.132C804.844 511.241 807.75 511.29 810.537 511.29C812.654 511.28 814.791 511.241 816.919 511.113L818.583 512.048L816.793 557.648Z" fill="#171717"/>
<path d="M667.485 665.178L719.437 671.383C720.02 671.451 720.563 671.711 720.982 672.122C721.401 672.533 721.672 673.072 721.752 673.653C721.832 674.234 721.717 674.826 721.425 675.335C721.132 675.844 720.679 676.241 720.137 676.465L676.937 694.265L626.304 686.15C649.55 674.328 667.485 665.178 667.485 665.178Z" fill="#171717"/>
<path d="M621.186 659.652L667.486 665.177C667.486 665.177 649.551 674.327 626.308 686.146L581.644 678.985L621.186 659.652Z" fill="#171717"/>
<path d="M626.307 686.146L676.94 694.262L631.1 713.151L589.391 704.869C601.98 698.5 614.794 691.999 626.307 686.146Z" fill="#171717"/>
<path d="M546.246 696.291L581.646 678.986L626.31 686.147C614.797 691.997 601.983 698.497 589.397 704.869L546.246 696.291Z" fill="#171717"/>
<path d="M552.766 723.326C563.6 717.899 576.374 711.458 589.394 704.869L631.103 713.152L586.449 731.552L552.766 723.326Z" fill="#171717"/>
<path d="M586.449 731.549L558.173 743.199C553.888 744.962 549.137 745.246 544.673 744.006L522.72 737.906C523.37 737.906 535.632 731.888 552.769 723.32L586.449 731.549Z" fill="#171717"/>
<path d="M532.379 671.088L581.643 678.988L546.243 696.293L501.443 687.393C512 681.823 522.747 676.16 532.379 671.088Z" fill="#171717"/>
<path d="M581.643 678.985L532.379 671.085C551.633 660.931 566.446 653.111 566.446 653.111L621.186 659.65L581.643 678.985Z" fill="#171717"/>
<path d="M552.766 723.326L511.549 713.26L546.249 696.291L589.397 704.869C576.374 711.458 563.6 717.9 552.766 723.326Z" fill="#171717"/>
<path d="M483.42 727.009L511.549 713.26L552.766 723.326C535.629 731.894 523.366 737.912 522.717 737.912H522.7L483.42 727.009Z" fill="#171717"/>
<path d="M546.246 696.291L511.546 713.26L471.077 703.372C480.069 698.645 490.656 693.072 501.441 687.387L546.246 696.291Z" fill="#171717"/>
<path d="M520.068 647.578L566.446 653.113C566.446 653.113 551.633 660.933 532.379 671.087L487.321 663.858C505.846 654.679 520.068 647.578 520.068 647.578Z" fill="#171717"/>
<path d="M520.068 647.578C520.068 647.578 505.846 654.678 487.321 663.858L450.87 658.017L483.411 643.199H483.42L520.068 647.578Z" fill="#171717"/>
<path d="M511.549 713.259L483.42 727.008L445.887 716.588C446.94 716.066 457.087 710.748 471.08 703.371L511.549 713.259Z" fill="#171717"/>
<path d="M501.444 687.387C490.659 693.07 480.072 698.645 471.08 703.372L428.336 692.932C437.003 688.717 447.136 683.732 457.449 678.652L501.444 687.387Z" fill="#171717"/>
<path d="M457.449 678.652C467.649 673.619 478.033 668.478 487.321 663.859L532.379 671.088C522.747 676.16 512.002 681.823 501.444 687.388L457.449 678.652Z" fill="#171717"/>
<path d="M452.505 639.504L483.411 643.197L450.87 658.019L418.625 652.849L452.495 639.504H452.505Z" fill="#171717"/>
<path d="M421.324 671.472L450.87 658.018L487.321 663.859C478.033 668.478 467.653 673.619 457.449 678.652L421.324 671.472Z" fill="#171717"/>
<path d="M450.87 658.018L421.324 671.472L388.104 664.873L418.625 652.848L450.87 658.018Z" fill="#171717"/>
<path d="M421.324 671.473L457.449 678.653C447.137 683.735 437.003 688.718 428.336 692.933L393.1 684.326L421.324 671.473Z" fill="#171717"/>
<path d="M421.206 635.77L452.5 639.5L418.63 652.845L385.755 647.576L416.936 636.259C418.301 635.763 419.764 635.596 421.206 635.77Z" fill="#171717"/>
<path d="M393.1 684.324L428.339 692.931C413.97 699.931 403.628 704.858 403.185 704.731L370.861 695.769L371.275 694.262L393.1 684.324Z" fill="#171717"/>
<path d="M359.532 676.12L388.104 664.873L421.324 671.472L393.097 684.325L359.532 676.12Z" fill="#171717"/>
<path d="M445.887 716.59L403.188 704.732C403.63 704.86 413.972 699.932 428.341 692.932L471.085 703.372C457.085 710.75 446.94 716.068 445.887 716.59Z" fill="#171717"/>
<path d="M240.608 413.788L295.121 412.064L315.656 411.414V432.274H403.182L401.015 595.3C400.914 602.87 403.671 610.2 408.734 615.828C413.798 621.456 420.797 624.968 428.336 625.664L751.751 655.464L751.682 656.193L414.351 625.419C410.243 625.042 406.102 625.549 402.207 626.906L275.64 671.006C274.65 671.344 273.741 671.884 272.971 672.592L272.961 672.582C266.175 674.945 268.982 702.699 275.827 704.882L396.534 743.361L396.524 743.401C396.524 743.401 395.579 746.257 393.846 750.925C391.895 756.194 388.941 763.768 385.228 772.12C376.236 792.379 362.792 817.237 348.328 825.057C322.6 838.971 82.751 808.38 63.989 650.573C45.227 492.766 228.75 432.273 228.75 432.273L227.381 414.2L240.608 413.788Z" fill="url(#paint1_linear_417_704)"/>
<path d="M393.097 684.324L371.272 694.261L370.858 695.768L334.969 685.801L359.532 676.119L393.097 684.324Z" fill="#171717"/>
<path d="M388.104 664.872L359.532 676.119L328.184 668.467L355.79 658.451L388.104 664.872Z" fill="#171717"/>
<path d="M355.79 658.451L385.75 647.578L418.625 652.847L388.104 664.872L355.79 658.451Z" fill="#171717"/>
<path d="M359.532 676.121L334.969 685.801L312.041 679.438C311.501 679.287 311.022 678.967 310.675 678.527C310.328 678.086 310.129 677.546 310.108 676.985C310.087 676.424 310.245 675.871 310.559 675.406C310.873 674.94 311.327 674.587 311.854 674.396L328.184 668.467L359.532 676.121Z" fill="#171717"/>
<path d="M328.184 275.44C322.458 277.875 316.558 279.876 310.534 281.428C293.772 285.791 276.399 287.17 259.124 288.528L258.73 288.637C255.607 304.568 250.895 320.146 244.666 335.137C240.882 344.265 236.434 353.103 231.36 361.581C229.93 346.364 231.42 331.013 235.752 316.355C232.742 323.467 228.362 329.916 222.86 335.334C221.698 336.486 219.906 337.639 218.576 336.703C217.576 336.014 217.522 334.595 217.562 333.394C218.122 316.69 218.677 299.987 219.226 283.283L219.778 282.554C244.941 276.32 263.309 258.326 282.357 240.746C293.423 230.534 304.447 220.281 315.429 209.988C315.754 223.698 308.545 236.324 301.562 248.133C315.144 239.702 328.722 231.271 342.297 222.841C340.274 235.342 335.316 247.186 327.829 257.399C334.222 251.968 341.633 247.863 349.629 245.325C352.811 244.32 356.858 243.798 358.976 246.388C361.596 249.609 358.818 254.336 355.876 257.271C347.88 265.028 338.483 271.194 328.184 275.44Z" fill="#171717"/>
<path d="M275.827 704.89C268.982 702.703 266.175 674.949 272.961 672.59L272.971 672.6C272.02 673.494 271.319 674.621 270.938 675.869C270.556 677.117 270.507 678.444 270.796 679.717C271.084 680.99 271.7 682.165 272.583 683.127C273.465 684.089 274.584 684.803 275.827 685.2L424.436 732.632L424.722 733.302C421.503 734.733 418.407 736.426 415.464 738.364C406.836 744.017 401.124 743.633 393.846 750.941C395.579 746.273 396.524 743.417 396.524 743.417L396.534 743.377L275.827 704.89Z" fill="#171717"/>
<path d="M259.3 380.6C254.415 378.187 252.593 371.815 253.775 366.506C254.957 361.197 258.443 356.727 261.959 352.57C262.731 357.467 265.372 361.873 269.326 364.862C269.533 365.009 269.74 365.167 269.947 365.305L269.395 365.975C263.427 368.575 260.088 375.045 262.107 381.24L262.058 381.486C261.1 381.331 260.17 381.032 259.3 380.6V380.6Z" fill="#171717"/>
<path d="M801.842 512.049L797.785 615.107C797.561 620.831 796.174 626.449 793.708 631.619C791.242 636.79 787.749 641.403 783.442 645.18C779.134 648.956 774.103 651.816 768.655 653.584C763.207 655.353 757.455 655.993 751.751 655.467L428.336 625.667C420.797 624.971 413.798 621.458 408.734 615.83C403.67 610.201 400.914 602.871 401.015 595.3L403.182 432.273L404.965 298.773C405.126 286.543 409.945 274.835 418.44 266.036C426.935 257.237 438.467 252.01 450.683 251.42L766.5 236.145C768.352 236.055 770.208 236.088 772.055 236.245C782.959 237.148 793.092 242.225 800.342 250.419C807.592 258.612 811.399 269.288 810.967 280.22L804.428 450.467" stroke="#171717" stroke-width="3" stroke-linecap="round" stroke-linejoin="round"/>
<path d="M770.691 508.937L767.854 593.666C767.725 597.532 766.804 601.33 765.15 604.827C763.496 608.324 761.142 611.444 758.235 613.996C755.328 616.548 751.929 618.477 748.247 619.665C744.566 620.852 740.68 621.272 736.83 620.9L454.888 601.053C447.193 600.308 440.06 596.696 434.905 590.934C429.751 585.172 426.952 577.683 427.066 569.953L436.55 314.308C436.679 305.542 440.179 297.162 446.325 290.91C452.47 284.658 460.788 281.013 469.55 280.733L743.869 272.033C748.329 271.889 752.771 272.662 756.919 274.305C761.068 275.948 764.835 278.424 767.988 281.582C771.141 284.74 773.612 288.511 775.248 292.663C776.884 296.814 777.651 301.257 777.5 305.717L772.6 452.257" stroke="#171717" stroke-width="3" stroke-linecap="round" stroke-linejoin="round"/>
<path d="M424.436 732.623L275.827 685.191C274.322 684.725 273.003 683.795 272.059 682.533C271.116 681.271 270.597 679.743 270.576 678.168C270.555 676.592 271.034 675.051 271.944 673.765C272.854 672.478 274.148 671.513 275.64 671.009L402.207 626.909C406.102 625.552 410.243 625.045 414.351 625.422L751.682 656.2L756.873 656.673L774.285 658.259C775.591 658.376 776.822 658.922 777.784 659.813C778.747 660.704 779.387 661.889 779.604 663.183C779.821 664.476 779.603 665.805 778.985 666.962C778.366 668.118 777.382 669.037 776.185 669.575L593.993 751.74C564.732 764.926 531.628 766.828 501.05 757.078L453.785 742.344" stroke="#171717" stroke-width="3" stroke-linecap="round" stroke-linejoin="round"/>
<path d="M396.524 743.407C396.524 743.407 395.579 746.263 393.846 750.931C391.895 756.2 388.941 763.774 385.228 772.126C376.236 792.385 362.792 817.243 348.328 825.063C322.6 838.97 82.751 808.379 63.989 650.572C45.227 492.765 228.75 432.272 228.75 432.272L227.381 414.199L240.608 413.786L295.121 412.062L315.656 411.412V432.272H403.182" stroke="#171717" stroke-width="3" stroke-linecap="round" stroke-linejoin="round"/>
<path d="M196.072 510.828C196.072 510.828 111.264 565.055 209.978 663.081" stroke="#171717" stroke-width="3" stroke-linecap="round" stroke-linejoin="round"/>
<path d="M818.585 512.049L816.793 557.649L814.528 615.107C813.582 639.266 792.828 658.59 768.75 656.374H756.9" stroke="#171717" stroke-width="3" stroke-linecap="round" stroke-linejoin="round"/>
<path d="M772.06 236.1L783.238 236.15C789.119 235.866 794.994 236.809 800.492 238.918C805.989 241.027 810.987 244.257 815.169 248.401C819.351 252.546 822.625 257.516 824.783 262.994C826.941 268.472 827.936 274.339 827.705 280.223L822.692 411.458L821.254 449.199" stroke="#171717" stroke-width="3" stroke-linecap="round" stroke-linejoin="round"/>
<path d="M400.228 744.551L396.534 743.369L275.827 704.89C268.982 702.703 266.175 674.949 272.961 672.59" stroke="#171717" stroke-width="3" stroke-linecap="round" stroke-linejoin="round"/>
<path d="M777.516 658.451C778.916 658.579 779.889 660.145 780.5 662.518C782.548 670.447 780.461 687.337 776.186 689.268L593.993 771.436C564.732 784.624 531.628 786.525 501.05 776.774L500.685 776.656L434.885 755.649" stroke="#171717" stroke-width="3" stroke-linecap="round" stroke-linejoin="round"/>
<path d="M393.846 750.932C401.124 743.624 406.836 744.008 415.464 738.355C418.406 736.417 421.502 734.724 424.722 733.293C430.925 730.439 437.695 729.032 444.522 729.176C448.481 729.334 453.022 730.584 454.558 734.238C455.658 736.878 454.745 740.01 452.992 742.275C451.094 744.424 448.838 746.227 446.324 747.603C442.374 750.065 438.422 752.524 434.466 754.98C430.332 757.55 426.193 760.124 422.047 762.701" stroke="#171717" stroke-width="3" stroke-linecap="round" stroke-linejoin="round"/>
<path d="M385.75 772.234C407.831 778.724 445.887 793.084 474.202 791.234C498.519 789.649 498.282 787.502 500.666 776.707" stroke="#171717" stroke-width="3" stroke-linecap="round" stroke-linejoin="round"/>
<path d="M258.73 288.639C255.607 304.57 250.895 320.148 244.666 335.139C240.882 344.267 236.434 353.105 231.36 361.583C229.93 346.366 231.42 331.015 235.752 316.357C232.742 323.469 228.362 329.918 222.86 335.336C221.698 336.488 219.906 337.641 218.576 336.705C217.576 336.016 217.522 334.597 217.562 333.396C218.122 316.692 218.677 299.988 219.226 283.285" stroke="#171717" stroke-width="3" stroke-linecap="round" stroke-linejoin="round"/>
<path d="M219.778 282.552C244.941 276.318 263.309 258.324 282.357 240.744C293.424 230.532 304.448 220.279 315.429 209.986C315.754 223.696 308.545 236.322 301.562 248.131C315.144 239.7 328.723 231.269 342.297 222.839C340.275 235.342 335.317 247.186 327.829 257.4C334.223 251.969 341.633 247.865 349.629 245.326C352.811 244.321 356.858 243.799 358.976 246.389C361.596 249.61 358.818 254.337 355.876 257.272C347.883 265.029 338.488 271.196 328.191 275.443C322.466 277.878 316.566 279.879 310.541 281.431C293.779 285.794 276.406 287.173 259.131 288.531" stroke="#171717" stroke-width="3" stroke-linecap="round" stroke-linejoin="round"/>
<path d="M328.184 275.4V275.439C328.174 294.281 328.164 313.114 328.154 331.939C328.154 344.496 327.386 358.767 317.754 366.823C313.066 370.733 306.782 372.623 302.744 377.194C294.737 386.245 299.13 400.644 295.121 412.039" stroke="#171717" stroke-width="3" stroke-linecap="round" stroke-linejoin="round"/>
<path d="M284.179 353.227C288.109 355.02 292.895 352.227 294.816 348.362C296.737 344.497 296.579 339.971 296.362 335.657C295.918 326.626 295.472 317.598 295.023 308.573C294.875 305.48 294.776 302.173 296.392 299.532C298.342 296.36 302.392 294.991 306.092 295.232C309.792 295.473 313.292 297.004 316.692 298.521" stroke="#171717" stroke-width="3" stroke-linecap="round" stroke-linejoin="round"/>
<path d="M307.777 323.129V313.852" stroke="#171717" stroke-width="3" stroke-linecap="round" stroke-linejoin="round"/>
<path d="M275.827 320.342C275.985 317.565 276.136 314.785 276.28 312" stroke="#171717" stroke-width="3" stroke-linecap="round" stroke-linejoin="round"/>
<path d="M283.2 368.462C278.544 369.063 273.828 367.939 269.944 365.301C269.737 365.163 269.53 365.001 269.323 364.858C265.368 361.869 262.728 357.463 261.956 352.566C258.44 356.723 254.956 361.194 253.772 366.502C252.588 371.81 254.412 378.183 259.297 380.596C260.167 381.028 261.096 381.327 262.055 381.482C266.455 382.211 271.273 380.082 275.282 377.71" stroke="#171717" stroke-width="3" stroke-linecap="round" stroke-linejoin="round"/>
<path d="M262.108 381.238C260.089 375.038 263.428 368.573 269.396 365.973" stroke="#171717" stroke-width="3" stroke-linecap="round" stroke-linejoin="round"/>
<path d="M244.754 335.174C243.366 361.382 241.984 387.586 240.608 413.788C240.608 413.847 240.598 413.906 240.598 413.965" stroke="#171717" stroke-width="3" stroke-linecap="round" stroke-linejoin="round"/>
<path d="M811.4 491.958C794.962 491.758 779.214 491.198 761.053 490.381C757.921 490.243 753.981 488.767 751.322 490.441C748.663 492.115 747.835 496.141 748.545 499.196C749.49 503.244 754.208 504.947 758.255 505.873C762.205 506.773 766.43 507.558 770.793 508.238C781.09 509.799 791.468 510.766 801.876 511.132C804.85 511.241 807.756 511.29 810.543 511.29C812.66 511.28 814.797 511.242 816.925 511.114C823.325 510.729 829.659 509.556 835.086 506.257C843.625 501.047 848.52 491.157 849.78 481.231C851.04 471.305 849.101 461.249 846.599 451.558C845.23 446.298 843.699 441.068 841.98 435.907C840.434 431.209 838.743 426.558 836.908 421.952C835.708 418.919 834.377 415.826 832.023 413.571C829.669 411.316 826.015 410.084 823.061 411.463" stroke="#171717" stroke-width="3" stroke-linecap="round" stroke-linejoin="round"/>
<path d="M811.4 491.957C813.714 492.035 815.96 492.065 818.126 492.026C815.857 492.016 813.621 491.986 811.4 491.957Z" stroke="#171717" stroke-width="3" stroke-linecap="round" stroke-linejoin="round"/>
<path d="M782.046 470.725C771.803 470.734 761.659 471.01 752.618 471.867C750.065 472.073 747.63 473.029 745.618 474.615C743.659 476.23 742.526 479.126 743.678 481.381C744.988 483.951 748.386 484.316 751.242 484.71C771.314 487.458 793.375 491.348 811.399 491.959" stroke="#171717" stroke-width="3" stroke-linecap="round" stroke-linejoin="round"/>
<path d="M782.046 470.725C795.495 471.648 808.983 471.885 822.456 471.434C810.539 471.227 796.189 470.715 782.046 470.725Z" stroke="#171717" stroke-width="3" stroke-linecap="round" stroke-linejoin="round"/>
<path d="M824.317 449.883C823.342 450.021 822.377 450.159 821.417 450.283C815.783 451.051 810.199 451.623 804.556 452.056C794.372 452.844 783.972 453.189 772.626 453.425C771.198 453.445 769.75 453.474 768.283 453.504C765.83 453.553 756.464 454.242 754.376 455.533C753.319 456.144 752.459 457.044 751.895 458.128C751.332 459.211 751.089 460.432 751.195 461.649C751.934 466.908 766.067 469.518 782.051 470.72" stroke="#171717" stroke-width="3" stroke-linecap="round" stroke-linejoin="round"/>
<path d="M842.3 435.801C855.389 440.154 867.759 447.363 876.7 457.862C885.641 468.361 890.882 482.356 889.326 496.062C888.154 506.304 883.338 515.867 877.084 524.081C869.927 533.386 860.971 541.156 850.749 546.929C840.527 552.701 829.248 556.358 817.584 557.681" stroke="#171717" stroke-width="3" stroke-linecap="round" stroke-linejoin="round"/>
<path d="M305.366 432.039L305.739 419.523" stroke="#171717" stroke-width="3" stroke-linecap="round" stroke-linejoin="round"/>
<path d="M284.6 432.504V419.527" stroke="#171717" stroke-width="3" stroke-linecap="round" stroke-linejoin="round"/>
<path d="M262.352 434.359C263.121 430.205 262.963 425.931 261.888 421.846" stroke="#171717" stroke-width="3" stroke-linecap="round" stroke-linejoin="round"/>
<path d="M242.9 435.287L242.434 422.309" stroke="#171717" stroke-width="3" stroke-linecap="round" stroke-linejoin="round"/>
<path d="M365.15 483.906L375.55 470.328" stroke="#171717" stroke-width="3" stroke-linecap="round" stroke-linejoin="round"/>
<path d="M333 523.723L321.52 509.131" stroke="#171717" stroke-width="3" stroke-linecap="round" stroke-linejoin="round"/>
<path d="M316.346 475.725C318.709 471.545 322.37 468.25 326.775 466.34" stroke="#171717" stroke-width="3" stroke-linecap="round" stroke-linejoin="round"/>
<path d="M271.98 413.174C274.745 495.453 292.825 576.496 325.292 652.149" stroke="#171717" stroke-width="3" stroke-linecap="round" stroke-linejoin="round"/>
<path d="M366.136 566.229L353.37 581.663" stroke="#171717" stroke-width="3" stroke-linecap="round" stroke-linejoin="round"/>
<path d="M343.46 622.762L334.074 614.42" stroke="#171717" stroke-width="3" stroke-linecap="round" stroke-linejoin="round"/>
<path d="M245.435 513.267L235.007 508.053" stroke="#171717" stroke-width="3" stroke-linecap="round" stroke-linejoin="round"/>
<path d="M203.656 479.852L210.712 469.262" stroke="#171717" stroke-width="3" stroke-linecap="round" stroke-linejoin="round"/>
<path d="M237.057 612.367L222.473 596.711" stroke="#171717" stroke-width="3" stroke-linecap="round" stroke-linejoin="round"/>
<path d="M254.82 582.09L265.249 571.662" stroke="#171717" stroke-width="3" stroke-linecap="round" stroke-linejoin="round"/>
<path d="M281.839 657.321L270.394 649.982" stroke="#171717" stroke-width="3" stroke-linecap="round" stroke-linejoin="round"/>
<path d="M312.114 765.532L323.479 758.072" stroke="#171717" stroke-width="3" stroke-linecap="round" stroke-linejoin="round"/>
<path d="M251.5 799.108L243.164 784.508" stroke="#171717" stroke-width="3" stroke-linecap="round" stroke-linejoin="round"/>
<path d="M205.809 734.342L219.521 727.278L219.412 724.955" stroke="#171717" stroke-width="3" stroke-linecap="round" stroke-linejoin="round"/>
<path d="M151.582 738.514L145.325 722.871" stroke="#171717" stroke-width="3" stroke-linecap="round" stroke-linejoin="round"/>
<path d="M163.053 675.944L173.481 670.73" stroke="#171717" stroke-width="3" stroke-linecap="round" stroke-linejoin="round"/>
<path d="M111.955 653L101.527 644.66" stroke="#171717" stroke-width="3" stroke-linecap="round" stroke-linejoin="round"/>
<path d="M123.244 598.576L135.808 587.16" stroke="#171717" stroke-width="3" stroke-linecap="round" stroke-linejoin="round"/>
<path d="M121.353 551.838L111.966 541.412" stroke="#171717" stroke-width="3" stroke-linecap="round" stroke-linejoin="round"/>
<path d="M148.453 517.438L159.924 507.01" stroke="#171717" stroke-width="3" stroke-linecap="round" stroke-linejoin="round"/>
<path d="M835.668 542.813L834.278 530.299" stroke="#171717" stroke-width="3" stroke-linecap="round" stroke-linejoin="round"/>
<path d="M863.477 498.318L874.6 494.146" stroke="#171717" stroke-width="3" stroke-linecap="round" stroke-linejoin="round"/>
<path d="M317.079 827.424C343.696 802.969 362.806 771.448 372.179 736.539" stroke="#171717" stroke-width="3" stroke-linecap="round" stroke-linejoin="round"/>
<path d="M860.033 456.213C862.781 458.16 864.973 460.789 866.395 463.842" stroke="#171717" stroke-width="3" stroke-linecap="round" stroke-linejoin="round"/>
<path d="M386.2 214.999L412.382 198.49" stroke="#171717" stroke-width="3" stroke-linecap="round" stroke-linejoin="round"/>
<path d="M369.024 205.838C378.251 181.362 388.125 157.145 398.645 133.186" stroke="#171717" stroke-width="3" stroke-linecap="round" stroke-linejoin="round"/>
<path d="M352.845 194.165L349.717 164.965" stroke="#171717" stroke-width="3" stroke-linecap="round" stroke-linejoin="round"/>
<path d="M440.441 229.148L450.882 226.828" stroke="#171717" stroke-width="3" stroke-linecap="round" stroke-linejoin="round"/>
<path d="M446.135 233.817L442.608 221.068" stroke="#171717" stroke-width="3" stroke-linecap="round" stroke-linejoin="round"/>
<path d="M467.124 152.942L454 150.615" stroke="#171717" stroke-width="3" stroke-linecap="round" stroke-linejoin="round"/>
<path d="M458.978 159.537L461.297 145.615" stroke="#171717" stroke-width="3" stroke-linecap="round" stroke-linejoin="round"/>
<path d="M40.2198 627.967C39.4668 696.115 74.8198 763.634 131.259 801.837" stroke="#171717" stroke-width="3" stroke-linecap="round" stroke-linejoin="round"/>
<path d="M284.74 201.683L275.84 194.455" stroke="#171717" stroke-width="3" stroke-linecap="round" stroke-linejoin="round"/>
<path d="M275.288 203.907L283.588 192.207" stroke="#171717" stroke-width="3" stroke-linecap="round" stroke-linejoin="round"/>
<path d="M184.76 340.535L167.407 327.521" stroke="#171717" stroke-width="3" stroke-linecap="round" stroke-linejoin="round"/>
<path d="M169.4 345.63L182.76 322.43" stroke="#171717" stroke-width="3" stroke-linecap="round" stroke-linejoin="round"/>
<path d="M219.711 202.2L209.162 195.5" stroke="#171717" stroke-width="3" stroke-linecap="round" stroke-linejoin="round"/>
<path d="M208.718 207.325L219.232 187.281" stroke="#171717" stroke-width="3" stroke-linecap="round" stroke-linejoin="round"/>
<path d="M91.8353 382.549C97.8593 382.392 103.774 384.177 108.705 387.641C113.636 391.105 117.322 396.063 119.219 401.782C121.115 407.502 121.122 413.68 119.237 419.404C117.352 425.128 113.675 430.093 108.751 433.567C103.372 437.361 95.8593 439.075 90.2143 435.689C84.5693 432.303 83.2143 422.718 88.8493 419.31C92.3413 417.196 97.1373 418.202 100.149 420.962C103.161 423.722 104.576 427.868 104.897 431.937C105.2 436.468 104.311 441.001 102.319 445.082C100.326 449.164 97.2991 452.652 93.5393 455.201C83.4763 461.85 70.0483 460.669 59.1703 465.879C54.8116 467.966 50.9905 471.027 48.0016 474.825C45.0127 478.623 42.9358 483.057 41.931 487.784C40.9262 492.511 41.0203 497.406 42.2061 502.092C43.3918 506.777 45.6376 511.127 48.7703 514.808" stroke="#171717" stroke-width="3" stroke-linecap="round" stroke-linejoin="round"/>
<path d="M875.412 330.9C862.565 345.839 861.282 369.54 872.441 385.778C875.622 390.407 879.864 394.55 885.182 396.358C890.5 398.166 896.995 397.188 900.714 392.979C904.433 388.77 904.149 381.265 899.469 378.16C893.03 373.887 883.84 380.896 883.498 388.615C883.156 396.334 888.56 403.104 894.398 408.16C904.632 417.014 918.213 424.87 920.033 438.28C920.545 442.847 919.567 447.456 917.245 451.421C914.923 455.386 911.38 458.494 907.147 460.28" stroke="#171717" stroke-width="3" stroke-linecap="round" stroke-linejoin="round"/>
<path d="M55.9489 442.354L44.2129 434.705" stroke="#171717" stroke-width="3" stroke-linecap="round" stroke-linejoin="round"/>
<path d="M45.9102 444.092L54.2522 432.969" stroke="#171717" stroke-width="3" stroke-linecap="round" stroke-linejoin="round"/>
<path d="M262.65 154.575L268.99 159.944C269.181 160.107 269.318 160.323 269.382 160.566C269.447 160.808 269.435 161.064 269.35 161.3C269.264 161.535 269.108 161.739 268.904 161.883C268.699 162.028 268.454 162.106 268.204 162.107L259.895 162.15C259.652 162.152 259.416 162.225 259.215 162.36C259.014 162.496 258.858 162.688 258.766 162.912L255.619 170.601C255.524 170.833 255.36 171.031 255.149 171.167C254.939 171.303 254.692 171.371 254.441 171.362C254.191 171.354 253.949 171.269 253.748 171.119C253.548 170.968 253.398 170.76 253.319 170.522L250.712 162.633C250.636 162.403 250.493 162.201 250.302 162.052C250.111 161.902 249.88 161.813 249.638 161.795L241.352 161.177C241.102 161.159 240.864 161.064 240.669 160.906C240.475 160.747 240.334 160.533 240.264 160.292C240.195 160.052 240.202 159.795 240.282 159.558C240.363 159.321 240.515 159.114 240.717 158.965L247.417 154.047C247.612 153.904 247.761 153.706 247.844 153.478C247.927 153.25 247.94 153.003 247.883 152.767L245.909 144.696C245.849 144.453 245.866 144.197 245.956 143.963C246.046 143.729 246.206 143.528 246.414 143.388C246.622 143.247 246.868 143.174 247.119 143.178C247.37 143.182 247.613 143.262 247.817 143.408L254.564 148.258C254.761 148.4 254.995 148.48 255.237 148.488C255.479 148.497 255.719 148.433 255.925 148.305L262.991 143.934C263.204 143.803 263.452 143.739 263.703 143.753C263.953 143.767 264.193 143.857 264.391 144.011C264.588 144.165 264.734 144.376 264.808 144.616C264.882 144.855 264.881 145.112 264.805 145.35L262.278 153.265C262.204 153.496 262.199 153.744 262.266 153.977C262.332 154.21 262.465 154.418 262.65 154.575Z" fill="#171717"/>
<g opacity="0.1">
<path d="M321.961 275.812C317.729 275.812 313.998 278.676 309.978 279.822C305.321 281.051 300.566 281.872 295.766 282.275C286.535 283.224 277.201 283.366 268.436 286.775C259.849 290.12 253.136 295.696 248.92 303.967C246.961 307.813 245.52 311.903 243.533 315.734C241.65 319.359 238.566 322.074 236.974 325.802C235.215 329.919 237.179 335.051 242.274 335.042C252.266 335.025 256.384 324.532 259.703 316.685C263.138 308.565 267.026 302.508 275.662 299.379C284.414 296.208 293.714 295.595 302.792 293.934C310.106 292.595 323.724 289.292 325.815 280.87C325.969 280.276 325.987 279.656 325.866 279.055C325.745 278.454 325.489 277.888 325.118 277.401C324.747 276.913 324.269 276.516 323.722 276.24C323.175 275.964 322.572 275.816 321.959 275.807L321.961 275.812Z" fill="#171717"/>
</g>
<g opacity="0.1">
<path d="M229.242 419.416C229.166 431.171 218.542 437.106 209.142 441.487C199.767 445.855 190.242 449.67 181.142 454.633C162.803 464.633 145.768 476.207 130.559 490.587C99.2003 520.234 74.8003 560.3 66.5393 602.9C62.4296 623.59 62.644 644.905 67.169 665.508C71.6941 686.11 80.4319 705.554 92.8333 722.616C117.066 756.284 150.887 780.575 188.866 796.589C237.547 817.115 290.756 824.984 343.119 828.989C353.527 829.789 356.079 812.303 345.611 810.574C300.896 803.19 255.511 797.828 212.565 782.604C175.79 769.565 141.938 748.436 116.965 718.125C92.7803 688.766 80.5933 650.992 86.7903 613.09C93.5303 571.867 115.69 534.254 144.574 504.607C159.781 489 176.9 475 196.036 464.517C206.201 458.949 217.865 455.194 226.857 447.743C235.42 440.643 241.278 429.343 238.174 418.207C236.797 413.27 229.274 414.254 229.242 419.416V419.416Z" fill="#171717"/>
</g>
<g clip-path="url(#clip1_417_704)">
<path fill-rule="evenodd" clip-rule="evenodd" d="M692.962 491.17C705.87 491.424 716.55 480.7 716.816 467.219L716.814 467.219L717.742 420.06C718.007 406.58 707.757 395.444 694.849 395.19L602.354 393.37C589.447 393.116 578.766 403.84 578.501 417.32L577.573 464.479C577.308 477.96 587.558 489.095 600.466 489.349L692.962 491.17ZM601.703 418.959L600.7 469.918L609.066 470.083L610.069 419.124L619.716 419.314L619.914 409.234L592.25 408.69L592.052 418.769L601.703 418.959ZM644.871 470.787L645.773 424.949L637.91 424.794L637.334 454.074C637.281 456.743 637.096 458.638 636.787 459.771C636.224 461.744 635.159 462.713 633.589 462.682C632.138 462.653 631.186 461.721 630.737 459.888C630.487 458.825 630.387 457.067 630.436 454.61L631.025 424.658L623.475 424.51L622.767 460.515C622.622 467.883 625.062 471.618 630.083 471.717C633.202 471.779 635.602 469.901 637.295 466.082L637.205 470.636L644.871 470.787ZM652.815 409.882L651.614 470.92L659.047 471.062L659.141 466.269C660.326 470.306 662.572 472.354 665.881 472.42C669.849 472.498 672.533 469.671 673.929 463.941C674.67 460.891 675.111 455.802 675.251 448.675C675.395 441.333 675.187 436.166 674.619 433.17C673.51 427.232 670.966 424.223 666.993 424.145C663.882 424.084 661.636 425.739 660.26 429.114L660.636 410.036L652.815 409.882ZM659.963 439.969C660.544 435.278 661.903 432.952 664.04 432.994C665.962 433.032 667.086 435.154 667.416 439.365C667.479 440.103 667.461 443.133 667.356 448.44C667.255 453.566 667.148 456.559 667.031 457.43C666.538 461.596 665.344 463.661 663.441 463.623C661.4 463.583 660.16 461.851 659.718 458.436C659.563 457.322 659.53 454.535 659.618 450.072C659.732 444.285 659.845 440.919 659.963 439.969ZM703.216 456.201L695.865 456.056C695.747 462.045 694.374 465.013 691.742 464.961C689.974 464.927 688.834 463.411 688.328 460.411C688.082 458.953 687.996 456.518 688.063 453.107C688.091 451.656 688.142 450.678 688.208 450.175L703.558 450.477L703.627 446.996C703.794 438.5 703.13 432.842 701.627 430.014C699.768 426.522 696.762 424.733 692.598 424.651C688.276 424.566 685.116 426.103 683.105 429.259C681.877 431.188 681.055 434.023 680.629 437.767C680.417 439.611 680.269 442.709 680.183 447.066C680.076 452.481 680.092 456.167 680.228 458.125C680.534 462.592 681.371 466.001 682.747 468.356C684.478 471.32 687.378 472.845 691.445 472.925C695.378 473.002 698.298 471.851 700.213 469.475C702.129 467.093 703.137 463.267 703.241 457.984C703.245 457.774 703.243 457.475 703.227 457.092C703.216 456.709 703.212 456.412 703.216 456.201ZM695.858 443.048L688.287 442.899C688.295 442.478 688.292 442.043 688.278 441.595L688.249 440.961C688.185 438.166 688.522 436.024 689.25 434.534C689.857 433.333 690.854 432.746 692.235 432.774C693.887 432.806 694.97 433.711 695.479 435.487C695.809 436.601 695.948 438.475 695.896 441.112L695.858 443.048Z" fill="#171717"/>
<path d="M492.272 468.131L492.784 442.105L481.624 406.514L490.958 406.697L497.342 429.924L504.545 406.965L513.614 407.143L501.274 442.27L500.762 468.298L492.272 468.131ZM515.765 445.557C515.921 437.618 516.609 432 517.829 428.699C519.646 423.796 523.097 421.391 528.183 421.492C533.265 421.592 536.632 424.128 538.275 429.102C539.365 432.418 539.83 438.06 539.674 446.028C539.517 453.991 538.83 459.611 537.61 462.879C535.774 467.758 532.311 470.148 527.227 470.048C522.142 469.948 518.788 467.411 517.165 462.438C516.075 459.124 515.609 453.495 515.765 445.557V445.557ZM523.815 446.312C523.703 452.02 523.671 455.122 523.719 455.628C524.046 459.749 525.25 461.83 527.33 461.871C529.412 461.912 530.719 460.174 531.254 456.653C531.366 455.884 531.472 453.007 531.57 448.017L531.658 443.519C531.75 438.847 531.747 436.032 531.651 435.076C531.231 431.564 530.021 429.788 528.02 429.748C526.075 429.71 524.829 431.228 524.281 434.296C524.108 435.274 523.979 437.86 523.897 442.052L523.815 446.312V446.312ZM568.313 423.512L567.406 469.609L559.697 469.458L559.787 464.877C558.085 468.718 555.667 470.605 552.537 470.544C547.484 470.444 545.031 466.69 545.177 459.282L545.889 423.071L553.481 423.221L552.889 453.341C552.84 455.814 552.942 457.581 553.192 458.646C553.642 460.49 554.6 461.429 556.059 461.458C557.637 461.489 558.71 460.513 559.275 458.532C559.586 457.392 559.773 455.485 559.826 452.804L560.406 423.357L568.313 423.512V423.512Z" fill="#171717"/>
</g>
</g>
<defs>
<linearGradient id="paint0_linear_417_704" x1="853.197" y1="435.801" x2="853.197" y2="557.681" gradientUnits="userSpaceOnUse">
<stop stop-color="#D89EFF"/>
<stop offset="1" stop-color="#8238E0"/>
</linearGradient>
<linearGradient id="paint1_linear_417_704" x1="407.197" y1="411.414" x2="407.197" y2="828.057" gradientUnits="userSpaceOnUse">
<stop stop-color="#D89EFF"/>
<stop offset="1" stop-color="#8238E0"/>
</linearGradient>
<clipPath id="clip0_417_704">
<rect width="884" height="699" fill="white" transform="translate(38 131)"/>
</clipPath>
<clipPath id="clip1_417_704">
<rect width="236.42" height="96" fill="white" transform="translate(481.889 391) rotate(1.12728)"/>
</clipPath>
</defs>
</svg>
