<svg width="960" height="960" viewBox="0 0 960 960" fill="none" xmlns="http://www.w3.org/2000/svg">
<g clip-path="url(#clip0_46_7773)">
<g clip-path="url(#clip1_46_7773)">
<path fill-rule="evenodd" clip-rule="evenodd" d="M494.536 797.313C496.368 800.386 498.001 803.572 499.425 806.854C503.531 816.275 505.994 826.33 506.706 836.583C507.06 841.585 506.981 846.608 506.47 851.597C506.144 854.758 505.643 857.898 504.97 861.003H505.037C534.186 864.868 563.443 868.723 592.786 869.903C600.964 870.251 609.164 870.375 617.364 870.229C641.571 869.813 665.958 866.981 689.233 860.519C702.137 856.997 714.667 852.224 726.645 846.269C760.281 829.445 789.231 801.518 802.571 766.353C806.808 755.153 809.449 742.761 806.156 731.253C801.807 716.014 787.973 705.337 773.599 698.673L773.393 698.579C772.897 698.352 772.402 698.126 771.899 697.909C748.876 687.66 723.129 684.96 697.899 687.66C689.263 688.591 680.702 690.115 672.276 692.223C638.808 700.598 607.936 717.084 578.582 735.223C578.047 735.556 577.511 735.889 576.975 736.222C575.901 736.889 574.828 737.556 573.761 738.223C565.6 743.34 557.511 748.577 549.423 753.813C535.202 763.02 520.985 772.225 506.387 780.771C502.285 783.176 498.149 785.536 493.98 787.806C492.846 788.435 491.713 789.053 490.58 789.66L490.22 790.739C491.76 792.863 493.21 795.054 494.536 797.313ZM664.251 703.623C689.744 699.387 715.548 695.233 740.499 700.166C765.43 705.095 789.482 721.08 796.767 744.951C797.039 745.841 797.981 746.343 798.872 746.071C799.762 745.799 800.264 744.857 799.992 743.966C792.221 718.501 766.823 701.933 741.153 696.858C715.502 691.786 689.089 696.078 663.698 700.296C662.78 700.449 662.159 701.317 662.311 702.236C662.464 703.154 663.332 703.775 664.251 703.623Z" fill="#171717"/>
<path fill-rule="evenodd" clip-rule="evenodd" d="M510.763 597.292V597.281C511.317 589.369 511.606 581.46 511.631 573.555C511.732 531.636 504.742 489.998 495.425 449.124C497.407 448.754 499.354 448.219 501.246 447.524C510.431 444.085 517.898 437.175 522.037 428.284L522.059 428.239C526.08 430.915 530.746 432.462 535.569 432.717C540.392 432.973 545.195 431.928 549.476 429.691C553.757 427.455 557.358 424.11 559.903 420.005C562.449 415.9 563.844 411.187 563.944 406.358L564.517 406.369C578.666 426.564 580.486 454.705 569.057 476.552C564.899 484.494 559.248 491.472 553.589 498.46C549.919 502.992 546.245 507.529 542.973 512.335C538.253 519.281 534.353 527.327 532.836 535.52L533.78 535.7C542.625 535.968 551.42 537.124 560.033 539.15C565.933 540.537 571.752 542.248 577.464 544.275C581.514 545.713 585.523 547.287 589.489 548.995L589.68 548.545C584.195 529.204 586.668 509.366 590.41 489.61C591.216 485.354 592.088 481.101 592.959 476.845C596.135 461.347 599.315 445.822 599.367 430.048C599.433 409.942 593.667 388.769 578.867 375.16C561.897 359.561 536.24 356.863 513.718 361.752C497.22 365.335 481.397 372.642 468.765 383.835C456.133 395.028 446.861 410.246 443.883 426.855C440.4 446.344 445.522 465.606 450.679 485.003C453.926 497.214 457.187 509.478 458.324 521.886C458.96 528.889 458.821 535.94 457.908 542.913C454.593 568.499 441.107 592.863 418.675 605.113C424.665 606.058 434.521 605.225 439.106 601.258C434.549 621.165 423.786 639.11 408.369 652.505L408.504 652.662C426.058 647.841 443.208 635.786 452.918 620.386L453.637 620.847C452.561 643.061 451.49 665.271 450.423 687.479H451.3C460.889 671.967 469.332 655.776 476.562 639.034L477.262 639.334C481.06 658.127 483.457 677.176 484.432 696.324L485.398 696.268C497.94 670.735 505.436 643.044 509.021 614.768C509.756 608.961 510.336 603.136 510.763 597.292ZM546.519 370.397C536.951 369.059 527.199 370.331 518.294 374.078C517.436 374.44 517.033 375.428 517.394 376.286C517.755 377.145 518.744 377.548 519.602 377.186C527.947 373.675 537.085 372.483 546.052 373.736C555.018 374.99 563.479 378.642 570.541 384.307C577.603 389.972 583.004 397.44 586.172 405.921C589.341 414.402 590.159 423.581 588.541 432.489C588.375 433.405 588.983 434.283 589.899 434.449C590.815 434.616 591.693 434.008 591.859 433.092C593.586 423.586 592.712 413.791 589.331 404.741C585.95 395.691 580.187 387.722 572.651 381.677C565.116 375.632 556.087 371.734 546.519 370.397Z" fill="#171717"/>
<path d="M689.239 860.517L689.576 861.742C687.463 873.778 676.045 882.567 664.054 884.972C652.063 887.377 639.654 884.59 628.001 880.881C616.348 877.172 604.884 872.497 592.746 870.991L592.791 869.901C600.972 870.249 609.165 870.373 617.369 870.227C641.577 869.811 665.964 866.979 689.239 860.517Z" fill="url(#paint0_linear_46_7773)"/>
<path d="M649.883 527.087C642.378 541.266 632.649 554.151 621.068 565.252C618.868 563.937 616.64 562.652 614.415 561.397C606.337 556.812 598.016 552.67 589.488 548.99L589.679 548.54C584.195 529.199 586.667 509.363 590.409 489.606C594.151 469.849 599.299 450.159 599.366 430.043C599.433 409.927 593.666 388.765 578.866 375.155C561.896 359.555 536.239 356.855 513.717 361.748C497.217 365.333 481.384 372.627 468.764 383.831C456.144 395.035 446.864 410.241 443.882 426.851C438.207 458.611 455.382 489.763 458.323 521.882C458.959 528.885 458.82 535.937 457.907 542.909L457.132 542.819C442.549 544.977 428.403 549.442 415.224 556.046L414.887 555.383C405.435 544.27 397.565 531.903 391.501 518.634C382.956 500.075 378.499 479.896 378.431 459.464C378.429 451.668 379.053 443.885 380.297 436.189C385.96 401.533 404.058 370.128 431.204 347.852C458.351 325.576 492.684 313.956 527.78 315.167C562.875 316.378 596.326 330.336 621.872 354.43C647.419 378.524 663.31 411.102 666.571 446.066C666.987 450.471 667.193 454.938 667.189 459.466C667.235 482.943 660.919 506.33 649.883 527.087Z" fill="url(#paint1_linear_46_7773)"/>
<path d="M577.283 544.776C579.407 558.284 578.733 571.646 573.983 584.458C569.233 597.27 560.07 608.689 547.854 614.814C535.638 620.939 521.197 621.703 509.396 614.814L509.025 614.768C509.767 608.958 510.348 603.133 510.767 597.293C519.387 603.946 532.288 603.182 541.391 597.203C550.505 591.203 556.102 580.896 558.563 570.265C561.024 559.634 560.53 550.507 559.934 539.617L560.034 539.146C565.934 540.533 571.754 542.244 577.465 544.271L577.283 544.776Z" fill="url(#paint2_linear_46_7773)"/>
<path d="M461.911 818.62C452.578 823.116 443.798 828.68 435.748 835.2C432.948 837.459 430.174 839.932 428.648 843.18C427.122 846.428 427.12 850.664 429.558 853.305C432.758 856.778 438.335 856.115 442.958 855.081C450.825 853.328 458.624 851.259 466.379 849.023C471.47 847.551 476.542 846.008 481.596 844.393C489.508 841.893 497.386 839.293 505.241 836.672L506.713 836.583C507.067 841.585 506.988 846.608 506.477 851.596L505.466 851.507C472.706 860.722 443.419 884.143 409.39 883.885C400.298 883.818 390.59 881.649 384.396 874.973C381.44 871.726 379.478 867.7 378.743 863.372C377.181 854.91 379.575 845.323 384.295 837.872C391.881 825.892 404.31 817.622 417.538 812.508C430.766 807.394 444.881 805.169 458.895 802.955C470.761 801.088 482.628 799.218 494.495 797.346L494.54 797.312C496.371 800.385 498.004 803.572 499.429 806.854C491.839 808.051 484.367 809.905 477.098 812.393C471.914 814.16 466.842 816.239 461.911 818.62V818.62Z" fill="url(#paint3_linear_46_7773)"/>
<path d="M494.535 797.311L494.49 797.345C482.623 799.212 470.757 801.081 458.89 802.953C444.876 805.167 430.749 807.403 417.533 812.506C404.317 817.609 391.876 825.891 384.29 837.871C379.57 845.322 377.176 854.908 378.738 863.371L378.659 863.382C354.519 860.494 331.259 858.325 307.633 852.571C284.007 846.817 260.848 837.287 242.417 821.43C235.426 815.421 229.283 808.491 224.155 800.83C215.726 788.176 210.343 773.622 209.781 758.484C208.871 734.184 221.896 708.984 243.957 698.752C258.803 691.874 275.896 692.076 292.192 693.582C308.555 695.11 325.098 697.92 339.73 705.382C339.764 705.405 339.797 705.416 339.83 705.438C355.878 713.676 368.611 727.004 382.524 738.49C414.329 764.614 452.758 781.401 493.536 786.983L493.986 787.803C492.853 788.432 491.719 789.05 490.586 789.657L490.226 790.736C491.759 792.861 493.209 795.052 494.535 797.311Z" fill="#171717"/>
<path d="M307.63 852.57C331.253 858.324 354.516 860.493 378.656 863.381C271.263 860.313 164.611 859.11 57.2174 856.042C50.5304 855.851 41.9894 854.176 40.7984 847.591C39.5394 840.713 47.6424 836.184 54.3184 834.083C109.375 816.753 166.859 808.797 224.039 800.907L224.151 800.828C229.279 808.489 235.423 815.419 242.413 821.428C260.845 837.286 284.007 846.805 307.63 852.57Z" fill="#171717"/>
<path d="M534.173 554.024C532.016 548.098 531.553 541.689 532.836 535.514C534.353 527.321 538.253 519.275 542.973 512.329C551.289 500.113 562.202 489.639 569.057 476.546C580.486 454.699 578.666 426.558 564.517 406.363" stroke="#171717" stroke-width="3.372" stroke-linecap="round" stroke-linejoin="round"/>
<path d="M517.236 424.266C518.671 425.785 520.291 427.117 522.057 428.233C526.078 430.909 530.744 432.456 535.567 432.712C540.39 432.967 545.193 431.922 549.474 429.686C553.755 427.449 557.356 424.104 559.902 419.999C562.447 415.894 563.842 411.181 563.942 406.352C563.991 405.065 563.939 403.776 563.785 402.497" stroke="#171717" stroke-width="3.372" stroke-linecap="round" stroke-linejoin="round"/>
<path d="M472.936 446.372C479.966 449.597 487.825 450.555 495.424 449.114C497.405 448.745 499.352 448.21 501.245 447.514C510.43 444.075 517.896 437.166 522.036 428.274" stroke="#171717" stroke-width="3.372" stroke-linecap="round" stroke-linejoin="round"/>
<path d="M510.763 597.293C510.337 603.137 509.756 608.962 509.021 614.769C505.436 643.045 497.94 670.736 485.398 696.269" stroke="#171717" stroke-width="3.372" stroke-linecap="round" stroke-linejoin="round"/>
<path d="M495.243 448.316C495.299 448.586 495.367 448.844 495.423 449.116C504.74 489.99 511.73 531.628 511.629 573.547C511.607 581.459 511.319 589.371 510.764 597.282" stroke="#171717" stroke-width="3.372" stroke-linecap="round" stroke-linejoin="round"/>
<path d="M484.444 696.471C484.446 696.422 484.442 696.373 484.433 696.325C483.457 677.177 481.061 658.128 477.263 639.335" stroke="#171717" stroke-width="3.372" stroke-linecap="round" stroke-linejoin="round"/>
<path d="M476.937 638.178C476.813 638.459 476.69 638.751 476.566 639.032C469.335 655.775 460.891 671.967 451.301 687.48" stroke="#171717" stroke-width="3.372" stroke-linecap="round" stroke-linejoin="round"/>
<path d="M450.425 687.48C451.491 665.272 452.563 643.062 453.639 620.848" stroke="#171717" stroke-width="3.372" stroke-linecap="round" stroke-linejoin="round"/>
<path d="M452.943 620.354C452.932 620.365 452.932 620.376 452.921 620.388C443.211 635.788 426.061 647.843 408.507 652.664" stroke="#171717" stroke-width="3.372" stroke-linecap="round" stroke-linejoin="round"/>
<path d="M408.123 652.72C408.202 652.653 408.292 652.574 408.37 652.506C423.786 639.111 434.55 621.166 439.107 601.259" stroke="#171717" stroke-width="3.372" stroke-linecap="round" stroke-linejoin="round"/>
<path d="M439.108 601.26C434.523 605.227 424.667 606.06 418.677 605.115" stroke="#171717" stroke-width="3.372" stroke-linecap="round" stroke-linejoin="round"/>
<path d="M418.677 605.114C441.109 592.864 454.595 568.5 457.91 542.914C458.822 535.941 458.962 528.89 458.326 521.887C455.382 489.768 438.209 458.615 443.885 426.856C446.863 410.246 456.135 395.029 468.767 383.836C481.399 372.643 497.222 365.336 513.72 361.753C536.242 356.864 561.899 359.562 578.869 375.16C593.669 388.77 599.435 409.943 599.369 430.048C599.303 450.153 594.154 469.854 590.412 489.611C586.67 509.368 584.197 529.204 589.682 548.545" stroke="#171717" stroke-width="3.372" stroke-linecap="round" stroke-linejoin="round"/>
<path d="M533.779 535.699C542.624 535.967 551.419 537.123 560.032 539.149C565.932 540.536 571.751 542.247 577.463 544.274C581.509 545.714 585.518 547.287 589.488 548.994C598.016 552.674 606.337 556.815 614.415 561.399C616.64 562.658 618.865 563.939 621.068 565.254C642.7 578.164 662.841 593.999 677.529 614.385C693.723 636.85 702.916 660.046 697.859 687.266" stroke="#171717" stroke-width="3.372" stroke-linecap="round" stroke-linejoin="round"/>
<path d="M457.134 542.819C442.551 544.977 428.405 549.442 415.226 556.046C394.662 566.267 376.906 581.355 363.5 599.999C347.191 622.634 338.158 649.696 337.6 677.588C337.446 686.755 338.233 695.914 339.949 704.92" stroke="#171717" stroke-width="3.372" stroke-linecap="round" stroke-linejoin="round"/>
<path d="M510.729 597.258C510.74 597.269 510.751 597.281 510.763 597.281V597.292C519.383 603.945 532.285 603.181 541.388 597.202C550.502 591.202 556.099 580.895 558.56 570.264C561.021 559.633 560.526 550.507 559.93 539.617" stroke="#171717" stroke-width="3.372" stroke-linecap="round" stroke-linejoin="round"/>
<path d="M509.393 614.812C521.193 621.701 535.623 620.926 547.851 614.812C560.079 608.698 569.226 597.28 573.98 584.457C578.734 571.634 579.408 558.283 577.28 544.774" stroke="#171717" stroke-width="3.372" stroke-linecap="round" stroke-linejoin="round"/>
<path d="M490.579 789.659C491.712 789.052 492.846 788.434 493.979 787.805C498.148 785.535 502.284 783.175 506.386 780.77C529.286 767.364 551.249 752.338 573.76 738.223C575.36 737.223 576.974 736.223 578.581 735.223C607.935 717.084 638.807 700.598 672.275 692.223C680.701 690.115 689.262 688.591 697.898 687.66C723.128 684.96 748.875 687.66 771.898 697.909C772.471 698.156 773.033 698.415 773.598 698.673C787.972 705.337 801.806 716.014 806.155 731.253C809.448 742.761 806.807 755.153 802.57 766.353C789.23 801.518 760.28 829.445 726.644 846.269C714.666 852.224 702.136 856.997 689.232 860.519C665.957 866.981 641.57 869.813 617.363 870.229C609.163 870.375 600.963 870.251 592.785 869.903C563.442 868.723 534.185 864.868 505.036 861.003" stroke="#171717" stroke-width="3.372" stroke-linecap="round" stroke-linejoin="round"/>
<path d="M504.976 860.999C505.649 857.894 506.15 854.754 506.476 851.593C506.987 846.605 507.066 841.581 506.712 836.579C505.999 826.328 503.536 816.274 499.43 806.854C498.005 803.573 496.372 800.386 494.541 797.313C493.215 795.054 491.765 792.863 490.225 790.739" stroke="#171717" stroke-width="3.372" stroke-linecap="round" stroke-linejoin="round"/>
<path d="M620.911 710.473C624.112 688.941 623.059 666.991 617.811 645.864C617.833 646.516 617.856 647.156 617.878 647.808" stroke="#171717" stroke-width="3.372" stroke-linecap="round" stroke-linejoin="round"/>
<path d="M494.491 797.346C482.624 799.212 470.757 801.082 458.891 802.954C444.877 805.168 430.75 807.404 417.534 812.507C404.318 817.61 391.877 825.892 384.291 837.872C379.571 845.323 377.177 854.909 378.739 863.372C379.474 867.7 381.436 871.726 384.392 874.972C390.584 881.648 400.292 883.817 409.386 883.884C443.416 884.142 472.703 860.722 505.462 851.506" stroke="#171717" stroke-width="3.372" stroke-linecap="round" stroke-linejoin="round"/>
<path d="M493.535 786.983C452.757 781.401 414.328 764.614 382.523 738.49C368.61 727.004 355.877 713.676 339.829 705.438C339.795 705.416 339.762 705.404 339.729 705.382C325.097 697.92 308.554 695.11 292.191 693.582C275.891 692.076 258.802 691.874 243.956 698.752C221.895 708.979 208.87 734.186 209.78 758.484C210.342 773.622 215.725 788.176 224.154 800.83C229.282 808.491 235.425 815.421 242.416 821.43C260.847 837.287 284.009 846.806 307.632 852.571C331.255 858.336 354.518 860.494 378.658 863.382" stroke="#171717" stroke-width="3.372" stroke-linecap="round" stroke-linejoin="round"/>
<path d="M592.747 870.99C604.884 872.496 616.359 877.16 628.002 880.88C639.645 884.6 652.063 887.38 664.055 884.971C676.047 882.562 687.464 873.778 689.577 861.741" stroke="#171717" stroke-width="3.372" stroke-linecap="round" stroke-linejoin="round"/>
<path d="M398 672.5C403.12 691.524 414.998 708.029 431.411 718.924C447.824 729.82 467.646 734.359 487.165 731.692C493.807 730.782 501.943 729.602 505.989 734.951C507.075 736.471 507.755 738.242 507.967 740.098C508.203 742.195 508.236 744.31 508.067 746.414C507.471 757.798 506.871 769.179 506.267 780.556" stroke="#171717" stroke-width="3.372" stroke-linecap="round" stroke-linejoin="round"/>
<path d="M508 740.099C515.361 738.559 520.823 732.446 525.206 726.332C529.589 720.218 533.713 713.52 540.187 709.688C541.828 708.722 544.278 708.115 545.379 709.665C546.279 710.946 545.548 712.699 544.772 714.059C542.794 717.532 540.895 720.948 538.872 724.275C536.186 728.834 533.114 733.154 529.69 737.188" stroke="#171717" stroke-width="3.372" stroke-linecap="round" stroke-linejoin="round"/>
<path d="M538.274 724.981C538.465 724.745 538.656 724.509 538.874 724.273C546.328 715.219 555.116 707.352 564.936 700.942C566.836 699.706 569.476 698.571 571.151 700.099C572.927 701.706 571.814 704.617 570.551 706.651C563.626 717.743 554.972 727.657 544.917 736.017" stroke="#171717" stroke-width="3.372" stroke-linecap="round" stroke-linejoin="round"/>
<path d="M561.571 719.757C565.512 716.16 569.875 713.055 574.563 710.508C576.091 709.665 578.163 708.957 579.407 710.171C580.756 711.471 579.89 713.734 578.901 715.329C577.384 717.801 575.766 720.206 574.046 722.544C567.978 730.798 560.716 738.104 552.5 744.223" stroke="#171717" stroke-width="3.372" stroke-linecap="round" stroke-linejoin="round"/>
<path d="M574.294 722.724C576.587 721.3 579.006 720.089 581.52 719.105C582.267 718.762 583.08 718.586 583.903 718.588C584.314 718.592 584.715 718.72 585.054 718.954C585.393 719.189 585.653 719.519 585.803 719.903C585.931 720.674 585.762 721.465 585.331 722.117C582.292 728.027 578.395 733.454 573.767 738.222C573.675 738.332 573.578 738.437 573.475 738.537" stroke="#171717" stroke-width="3.372" stroke-linecap="round" stroke-linejoin="round"/>
<path d="M543.187 468.771C545.648 470.524 549.424 469.171 550.874 466.523C552.324 463.875 551.807 460.51 550.335 457.881C548.701 455.337 546.654 453.085 544.278 451.217" stroke="#171717" stroke-width="3.372" stroke-linecap="round" stroke-linejoin="round"/>
<path d="M553.144 445.012C553.537 444.138 554.175 443.398 554.981 442.879C555.787 442.36 556.725 442.086 557.684 442.09C558.642 442.093 559.578 442.375 560.38 442.899C561.182 443.424 561.815 444.169 562.202 445.046" stroke="#171717" stroke-width="3.372" stroke-linecap="round" stroke-linejoin="round"/>
<path d="M527.036 447.541C526.369 446.516 525.415 445.709 524.293 445.222C523.171 444.734 521.931 444.587 520.726 444.799C519.521 445.011 518.405 445.573 517.517 446.414C516.629 447.255 516.008 448.339 515.73 449.53" stroke="#171717" stroke-width="3.372" stroke-linecap="round" stroke-linejoin="round"/>
<path d="M530.947 491.742C528.239 492.012 525.418 492.281 522.867 491.326C520.316 490.371 518.158 487.797 518.619 485.126" stroke="#171717" stroke-width="3.372" stroke-linecap="round" stroke-linejoin="round"/>
<path d="M500.001 806.764C499.81 806.798 499.619 806.82 499.428 806.854C491.838 808.052 484.366 809.905 477.097 812.394C462.084 817.508 448.088 825.226 435.751 835.194C432.951 837.453 430.177 839.926 428.651 843.174C427.125 846.422 427.123 850.658 429.561 853.299C432.761 856.772 438.338 856.109 442.961 855.075C450.828 853.322 458.627 851.254 466.382 849.018C471.473 847.546 476.545 846.002 481.599 844.388C489.511 841.888 497.389 839.288 505.244 836.667" stroke="#171717" stroke-width="3.372" stroke-linecap="round" stroke-linejoin="round"/>
<path d="M481.386 843.748C481.517 833.295 480.119 822.88 477.239 812.831" stroke="#171717" stroke-width="3.372" stroke-linecap="round" stroke-linejoin="round"/>
<path d="M466.339 848.899C465.453 838.73 463.975 828.62 461.91 818.623C461.888 818.533 461.876 818.454 461.854 818.365" stroke="#171717" stroke-width="3.372" stroke-linecap="round" stroke-linejoin="round"/>
<path d="M224.04 800.908C166.859 808.797 109.375 816.754 54.3192 834.084C47.6432 836.184 39.5412 840.715 40.7992 847.592C41.9902 854.178 50.5312 855.853 57.2182 856.043C164.611 859.111 271.263 860.314 378.657 863.382" stroke="#171717" stroke-width="3.372" stroke-linecap="round" stroke-linejoin="round"/>
<path d="M378.433 459.466C378.431 451.67 379.055 443.887 380.299 436.191C385.962 401.535 404.06 370.13 431.206 347.854C458.353 325.578 492.686 313.958 527.781 315.169C562.877 316.38 596.328 330.338 621.874 354.432C647.421 378.526 663.312 411.104 666.573 446.068C666.989 450.473 667.195 454.94 667.191 459.468" stroke="#171717" stroke-width="3.372" stroke-linecap="round" stroke-linejoin="round"/>
<path d="M414.89 555.385C405.437 544.272 397.566 531.905 391.501 518.636C382.956 500.076 378.499 479.898 378.431 459.466" stroke="#171717" stroke-width="3.372" stroke-linecap="round" stroke-linejoin="round"/>
<path d="M667.19 459.466C667.235 482.943 660.919 506.33 649.883 527.087C642.378 541.266 632.649 554.151 621.068 565.252L621.012 565.308" stroke="#171717" stroke-width="3.372" stroke-linecap="round" stroke-linejoin="round"/>
<path d="M567.123 322.031L567.134 322.02C584.107 299.616 593.503 272.388 593.96 244.284C594.005 241.059 593.938 237.833 593.735 234.619C591.684 203.257 578.517 173.655 556.6 151.129C545.227 139.529 532.179 129.304 524.874 114.784" stroke="#171717" stroke-width="3.372" stroke-linecap="round" stroke-linejoin="round"/>
<path d="M524.878 114.785C509.2 149.41 476.868 176.799 469 214.899C467.112 223.762 466.34 232.827 466.7 241.882" stroke="#171717" stroke-width="3.372" stroke-linecap="round" stroke-linejoin="round"/>
<path d="M525.767 305.679C531.611 270.489 534.106 234.823 533.218 199.162" stroke="#171717" stroke-width="3.372" stroke-linecap="round" stroke-linejoin="round"/>
<path d="M484.669 319.178C486.726 292.184 480.442 265.209 466.669 241.903C464.52 238.248 462.184 234.707 459.669 231.294C440.961 206.043 413.86 188.295 383.237 181.238C367.391 177.638 350.871 176.125 336.879 167.887" stroke="#171717" stroke-width="3.372" stroke-linecap="round" stroke-linejoin="round"/>
<path d="M336.872 167.887C342.536 206.03 329.872 247.218 344.772 283.878C348.376 292.533 352.905 300.774 358.28 308.456" stroke="#171717" stroke-width="3.372" stroke-linecap="round" stroke-linejoin="round"/>
<path d="M441.053 327.841C426.89 295.098 409.66 263.768 389.593 234.271" stroke="#171717" stroke-width="3.372" stroke-linecap="round" stroke-linejoin="round"/>
<path d="M415.5 361.827C402.206 338.721 382.239 320.172 358.218 308.614C354.033 306.59 349.737 304.804 345.35 303.265C315.668 292.938 283.277 293.532 253.994 304.939C238.878 310.895 224.381 318.931 208.164 320.01" stroke="#171717" stroke-width="3.372" stroke-linecap="round" stroke-linejoin="round"/>
<path d="M208.16 320.009C233.885 347.858 246.494 388.169 278.343 410.286C285.977 415.456 294.184 419.725 302.8 423.008" stroke="#171717" stroke-width="3.372" stroke-linecap="round" stroke-linejoin="round"/>
<path d="M384.332 393.541C354.194 374.454 322.315 358.268 289.121 345.199" stroke="#171717" stroke-width="3.372" stroke-linecap="round" stroke-linejoin="round"/>
<path d="M379.658 436.09C356.018 423.867 329.158 419.311 302.81 423.054C298.551 423.638 294.291 424.436 290.066 425.448C259.521 432.851 232.617 450.901 214.185 476.358C204.711 489.552 196.878 504.158 183.842 513.849" stroke="#171717" stroke-width="3.372" stroke-linecap="round" stroke-linejoin="round"/>
<path d="M183.841 513.848C219.422 523.03 250.765 548.754 288.032 551.496C297.043 552.072 306.09 551.604 314.993 550.102" stroke="#171717" stroke-width="3.372" stroke-linecap="round" stroke-linejoin="round"/>
<path d="M371.746 480.199C336.071 480.485 300.504 484.15 265.521 491.145" stroke="#171717" stroke-width="3.372" stroke-linecap="round" stroke-linejoin="round"/>
<path d="M390.334 519.163C362.733 521.864 336.546 532.659 315.06 550.192C311.709 552.959 308.519 555.916 305.507 559.048C283.812 581.784 270.934 611.509 269.185 642.886C268.342 659.115 267.421 671.746 261.685 686.941" stroke="#171717" stroke-width="3.372" stroke-linecap="round" stroke-linejoin="round"/>
<path d="M261.688 686.94C285.165 679.186 312.35 682.152 336.502 677.578" stroke="#171717" stroke-width="3.372" stroke-linecap="round" stroke-linejoin="round"/>
<path d="M397.077 554.227C367.222 573.751 339.282 596.057 313.632 620.848" stroke="#171717" stroke-width="3.372" stroke-linecap="round" stroke-linejoin="round"/>
<path d="M773.886 697.515C765.952 657.327 760.546 616.498 737.553 585.12C732.238 577.784 726.031 571.136 719.077 565.329" stroke="#171717" stroke-width="3.372" stroke-linecap="round" stroke-linejoin="round"/>
<path d="M649.657 526.85C649.736 526.929 649.803 527.007 649.882 527.086C668.514 546.584 692.662 559.917 719.088 565.296C723.236 566.139 727.416 566.776 731.63 567.207C762.914 570.245 794.255 562.024 820.019 544.022C833.303 534.673 845.496 523.433 860.994 518.567" stroke="#171717" stroke-width="3.372" stroke-linecap="round" stroke-linejoin="round"/>
<path d="M860.994 518.567C828.886 497.214 806.803 460.206 769.604 446.687C760.77 443.564 751.626 441.401 742.329 440.236" stroke="#171717" stroke-width="3.372" stroke-linecap="round" stroke-linejoin="round"/>
<path d="M672.461 488.674C706.251 500.119 741.051 508.332 776.393 513.2" stroke="#171717" stroke-width="3.372" stroke-linecap="round" stroke-linejoin="round"/>
<path d="M666.801 446.047C692.601 451.711 718.351 449.868 742.278 440.091C746.57 438.329 750.764 436.337 754.842 434.123C782.406 419.022 803.677 394.581 814.832 365.198C820.541 349.998 824.295 333.843 834.364 321.088" stroke="#171717" stroke-width="3.372" stroke-linecap="round" stroke-linejoin="round"/>
<path d="M834.36 321.088C796.453 321.515 758.085 303.848 720.325 312.671C711.105 314.918 702.167 318.194 693.679 322.437" stroke="#171717" stroke-width="3.372" stroke-linecap="round" stroke-linejoin="round"/>
<path d="M661.717 402.544C696.082 392.973 729.463 380.168 761.412 364.3" stroke="#171717" stroke-width="3.372" stroke-linecap="round" stroke-linejoin="round"/>
<path d="M634.801 367.243C659.701 357.971 679.013 343.35 693.42 322.267C695.933 318.606 698.255 314.817 700.377 310.916C715.313 283.616 720.887 251.184 714.29 220.773C710.851 204.893 705.254 189.283 706.805 173.111" stroke="#171717" stroke-width="3.372" stroke-linecap="round" stroke-linejoin="round"/>
<path d="M706.8 173.112C676.142 193.375 636.043 199.398 609.027 225.212C602.509 231.438 598.98 236.731 594.069 244.283" stroke="#171717" stroke-width="3.372" stroke-linecap="round" stroke-linejoin="round"/>
<path d="M608.223 332.472C631.902 305.826 650.67 279.584 668.91 248.949" stroke="#171717" stroke-width="3.372" stroke-linecap="round" stroke-linejoin="round"/>
<path d="M657.49 840.809L669.39 822.654" stroke="url(#paint4_linear_46_7773)" stroke-width="3.372" stroke-linecap="round" stroke-linejoin="round"/>
<path d="M730.447 805.362L743.67 783.68" stroke="url(#paint5_linear_46_7773)" stroke-width="3.372" stroke-linecap="round" stroke-linejoin="round"/>
<path d="M765.885 745.743C757.95 740.229 750.509 734.035 743.646 727.231" stroke="url(#paint6_linear_46_7773)" stroke-width="3.372" stroke-linecap="round" stroke-linejoin="round"/>
<path d="M693.036 762.615L706.591 743.438" stroke="url(#paint7_linear_46_7773)" stroke-width="3.372" stroke-linecap="round" stroke-linejoin="round"/>
<path d="M679.94 794.648L659.594 774.793" stroke="url(#paint8_linear_46_7773)" stroke-width="3.372" stroke-linecap="round" stroke-linejoin="round"/>
<path d="M605.432 772.959L617.181 755.584" stroke="url(#paint9_linear_46_7773)" stroke-width="3.372" stroke-linecap="round" stroke-linejoin="round"/>
<path d="M636.755 807.399L626.873 819.699" stroke="url(#paint10_linear_46_7773)" stroke-width="3.372" stroke-linecap="round" stroke-linejoin="round"/>
<path d="M593.545 848.773L583.5 838.725" stroke="url(#paint11_linear_46_7773)" stroke-width="3.372" stroke-linecap="round" stroke-linejoin="round"/>
<path d="M542.245 812.281C545.124 806.938 549.087 802.255 553.88 798.531" stroke="url(#paint12_linear_46_7773)" stroke-width="3.372" stroke-linecap="round" stroke-linejoin="round"/>
<path d="M397 793.253L397.906 775.793" stroke="url(#paint13_linear_46_7773)" stroke-width="3.372" stroke-linecap="round" stroke-linejoin="round"/>
<path d="M361.9 780.55C356.715 780.55 351.555 779.839 346.563 778.435" stroke="url(#paint14_linear_46_7773)" stroke-width="3.372" stroke-linecap="round" stroke-linejoin="round"/>
<path d="M326.42 818.091C327.194 813.665 327.968 809.239 328.743 804.812" stroke="url(#paint15_linear_46_7773)" stroke-width="3.372" stroke-linecap="round" stroke-linejoin="round"/>
<path d="M343.252 741.65L331.761 747.236" stroke="url(#paint16_linear_46_7773)" stroke-width="3.372" stroke-linecap="round" stroke-linejoin="round"/>
<path d="M297.262 787.009L286.262 775.276" stroke="url(#paint17_linear_46_7773)" stroke-width="3.372" stroke-linecap="round" stroke-linejoin="round"/>
<path d="M305.332 756.749C305.066 750.759 304.797 744.77 304.527 738.78" stroke="url(#paint18_linear_46_7773)" stroke-width="3.372" stroke-linecap="round" stroke-linejoin="round"/>
<path d="M273.052 749.406L261.42 748.812" stroke="url(#paint19_linear_46_7773)" stroke-width="3.372" stroke-linecap="round" stroke-linejoin="round"/>
<path d="M270.54 720.799C270.785 715.683 271.03 710.565 271.274 705.447" stroke="#171717" stroke-width="3.372" stroke-linecap="round" stroke-linejoin="round"/>
<path d="M862.3 391.8C860.648 393.696 859.465 395.955 858.846 398.392C858.226 400.83 858.188 403.379 858.733 405.835C860.25 411.783 865.968 416.272 872.086 416.765C883.956 417.722 894.612 404.151 890.331 392.741C886.145 381.589 868.529 384.445 862.3 391.8Z" stroke="#171717" stroke-width="3.372" stroke-linecap="round" stroke-linejoin="round"/>
<path d="M886.529 386.99C889.576 382.783 891.739 378.001 892.888 372.934C894.036 367.866 894.145 362.619 893.209 357.508C892.409 353.259 890.562 348.786 886.722 346.798C885.313 346.15 883.789 345.791 882.239 345.744C880.689 345.696 879.146 345.962 877.701 346.523C870.514 349.037 865.92 356.542 865.048 364.106C864.176 371.67 866.434 379.26 869.454 386.249" stroke="#171717" stroke-width="3.372" stroke-linecap="round" stroke-linejoin="round"/>
<path d="M869.324 385.924C865.817 381.8 863.024 377.084 859.302 373.157C855.58 369.23 850.555 366.047 845.146 366.257C838.787 366.509 833.175 371.866 832.085 378.136C830.995 384.406 834.153 391.055 839.391 394.669C842.065 396.411 845.099 397.525 848.265 397.926C851.431 398.327 854.647 398.005 857.671 396.985" stroke="#171717" stroke-width="3.372" stroke-linecap="round" stroke-linejoin="round"/>
<path d="M858.101 396.699C853.831 397.578 849.477 398.052 845.256 399.142C841.035 400.232 836.868 402.004 833.773 405.074C830.678 408.144 828.813 412.687 829.757 416.943C830.747 421.405 834.729 424.854 839.175 425.915C843.704 426.825 848.41 426.033 852.391 423.689C856.329 421.346 859.814 418.315 862.68 414.74" stroke="#171717" stroke-width="3.372" stroke-linecap="round" stroke-linejoin="round"/>
<path d="M862.86 413.368C858.445 420.193 855.073 428.148 855.837 436.241C856.601 444.334 862.526 452.322 870.596 453.288C876.351 453.977 882.196 450.963 885.661 446.316C889.126 441.669 890.377 435.616 889.913 429.842C889.285 424.063 887.531 418.462 884.749 413.356" stroke="#171717" stroke-width="3.372" stroke-linecap="round" stroke-linejoin="round"/>
<path d="M884.54 413.059C886.686 417.458 889.256 421.636 892.213 425.536C895.196 429.454 899.258 432.416 903.9 434.059C906.892 435.002 910.294 435.144 913.045 433.639C916.345 431.832 918.094 427.978 918.438 424.229C919.056 417.49 915.724 410.729 910.558 406.36C905.392 401.991 898.599 399.842 891.843 399.445" stroke="#171717" stroke-width="3.372" stroke-linecap="round" stroke-linejoin="round"/>
<path d="M891.786 398.859C897.786 401.067 904.692 401.209 910.451 398.432C916.21 395.655 920.551 389.737 920.664 383.344C920.777 376.951 916.138 370.565 909.849 369.412C904.821 368.491 899.63 370.83 895.934 374.361C892.238 377.892 889.781 382.497 887.476 387.061" stroke="#171717" stroke-width="3.372" stroke-linecap="round" stroke-linejoin="round"/>
<path d="M201.152 625.379C200.657 622.308 199.033 619.532 196.598 617.596C194.163 615.66 191.094 614.702 187.99 614.911C183.441 615.38 179.542 618.388 176.473 621.778C174.015 624.493 171.798 627.994 172.503 631.587C173.103 634.644 175.723 636.95 178.565 638.227C187.675 642.321 202.654 637.404 201.152 625.379Z" stroke="#171717" stroke-width="3.372" stroke-linecap="round" stroke-linejoin="round"/>
<path d="M193.849 616.083C194.306 611.2 194.169 606.28 193.443 601.43C192.543 596.614 190.449 591.879 186.777 588.636C182.888 585.201 176.341 583.988 172.711 587.695C169.981 590.484 169.887 594.888 170.436 598.752C171.51 606.25 174.323 613.392 178.651 619.607" stroke="#171717" stroke-width="3.372" stroke-linecap="round" stroke-linejoin="round"/>
<path d="M176.664 619.862C174.005 615.569 170.089 612.199 165.449 610.207C160.809 608.216 155.669 607.699 150.725 608.729C147.863 609.28 145.222 610.652 143.125 612.677C142.093 613.699 141.334 614.963 140.916 616.354C140.499 617.746 140.437 619.219 140.736 620.641C141.521 623.648 144.175 625.776 146.862 627.341C153.845 631.37 161.937 633.052 169.947 632.141" stroke="#171717" stroke-width="3.372" stroke-linecap="round" stroke-linejoin="round"/>
<path d="M170.307 631.485C164.714 633.127 159.556 635.993 155.207 639.874C151.187 643.468 147.734 648.912 149.507 654.006C150.991 658.276 155.952 660.691 160.441 660.159C164.93 659.627 168.841 656.669 171.541 653.044C174.241 649.419 175.907 645.144 177.541 640.931" stroke="#171717" stroke-width="3.372" stroke-linecap="round" stroke-linejoin="round"/>
<path d="M178.112 639.28C176.565 645.908 176.313 652.772 177.369 659.495C177.83 662.417 178.792 665.646 181.41 667.025C184.61 668.708 188.78 666.519 190.37 663.275C191.96 660.031 191.59 656.185 190.823 652.655C190.056 649.125 188.923 645.603 189.089 641.996" stroke="#171717" stroke-width="3.372" stroke-linecap="round" stroke-linejoin="round"/>
<path d="M188.847 641.25C191.134 646.075 194.23 650.474 198.001 654.256C200.948 657.209 205.218 659.915 209.054 658.278C210.281 657.665 211.317 656.728 212.05 655.568C212.784 654.409 213.186 653.071 213.214 651.7C213.227 648.948 212.444 646.25 210.961 643.933C208.59 639.868 205.184 636.504 201.09 634.185" stroke="#171717" stroke-width="3.372" stroke-linecap="round" stroke-linejoin="round"/>
<path d="M199.001 633.574C201.284 633.657 203.559 633.267 205.683 632.428C207.808 631.589 209.736 630.32 211.346 628.699C214.559 625.402 216.456 621.044 216.682 616.445C216.964 612.931 216.009 609.43 213.982 606.545C212.953 605.127 211.574 604.001 209.978 603.277C208.383 602.553 206.626 602.257 204.882 602.417C202.046 602.938 199.512 604.513 197.79 606.826C196.096 609.125 194.699 611.628 193.632 614.276L194.232 613.956" stroke="#171717" stroke-width="3.372" stroke-linecap="round" stroke-linejoin="round"/>
<path d="M281.78 272.578L296.059 255.126" stroke="#171717" stroke-width="3.372" stroke-linecap="round" stroke-linejoin="round"/>
<path d="M294.8 271.516L282.735 256.577" stroke="#171717" stroke-width="3.372" stroke-linecap="round" stroke-linejoin="round"/>
<path d="M320.651 232.12L308.751 222.6" stroke="#171717" stroke-width="3.372" stroke-linecap="round" stroke-linejoin="round"/>
<path d="M310.271 233.662C312.907 229.426 315.543 225.19 318.18 220.954" stroke="#171717" stroke-width="3.372" stroke-linecap="round" stroke-linejoin="round"/>
<path d="M489.351 119.629L475.451 95.6143" stroke="#171717" stroke-width="3.372" stroke-linecap="round" stroke-linejoin="round"/>
<path d="M470.375 114.465L489.257 98.4141" stroke="#171717" stroke-width="3.372" stroke-linecap="round" stroke-linejoin="round"/>
<path d="M520.506 86.9615L517.324 75.0615" stroke="#171717" stroke-width="3.372" stroke-linecap="round" stroke-linejoin="round"/>
<path d="M510.262 82.2511L526.018 79.2861" stroke="#171717" stroke-width="3.372" stroke-linecap="round" stroke-linejoin="round"/>
<path d="M638.763 185.315C641.407 176.589 644.051 167.862 646.696 159.136" stroke="#171717" stroke-width="3.372" stroke-linecap="round" stroke-linejoin="round"/>
<path d="M650.662 177.381L631.623 168.655" stroke="#171717" stroke-width="3.372" stroke-linecap="round" stroke-linejoin="round"/>
<path d="M768.856 253.532L781.548 240.839" stroke="#171717" stroke-width="3.372" stroke-linecap="round" stroke-linejoin="round"/>
<path d="M780.625 252.088L768.17 239.606L769.686 239.98" stroke="#171717" stroke-width="3.372" stroke-linecap="round" stroke-linejoin="round"/>
<path d="M775.168 297.3C771.084 295.984 767.509 293.434 764.936 290" stroke="#171717" stroke-width="3.372" stroke-linecap="round" stroke-linejoin="round"/>
<path d="M774.207 289.846C770.989 293.53 767.773 297.213 764.557 300.897L766.432 299.488" stroke="#171717" stroke-width="3.372" stroke-linecap="round" stroke-linejoin="round"/>
<path d="M215.827 181.386C226.159 203.435 231.056 227.639 230.106 251.971C229.822 259.045 228.762 266.713 223.717 271.681C218.777 276.546 210.966 277.567 204.272 275.76C197.578 273.953 191.807 269.734 186.56 265.202C177.066 256.997 168.748 247.522 161.843 237.045C159.762 233.885 157.758 229.894 159.428 226.499C161.142 223.012 166.097 222.235 169.61 223.899C173.123 225.563 175.483 228.917 177.556 232.199C184.276 242.851 189.846 254.712 190.296 267.299C190.746 279.886 185.13 293.284 174.048 299.27C162.966 305.256 146.703 301.095 142.141 289.355C140.496 285.121 142.204 278.499 146.717 279.022C149.311 279.322 150.917 281.935 152.027 284.298C158.281 297.825 161.516 312.55 161.508 327.453C161.5 342.356 158.249 357.078 151.98 370.598" stroke="#171717" stroke-width="3.372" stroke-linecap="round" stroke-linejoin="round"/>
<path d="M825.333 654.019C834.523 668.078 846.09 680.429 859.516 690.519C863.882 693.797 868.952 696.966 874.38 696.379C884.161 695.32 888.427 683.431 889.007 673.611C890.38 648.4 882.036 623.621 865.693 604.374C862.776 600.974 858.393 597.474 854.27 599.237C850.595 600.806 849.67 605.63 850.111 609.602C851.653 623.502 864.589 635.053 878.569 635.524C892.549 635.995 906.02 625.74 909.795 612.271C913.57 598.802 907.679 583.343 896.2 575.351C907.5 575.379 916.455 564.602 918.4 553.475C920.345 542.348 917.045 531.047 913.778 520.235" stroke="#171717" stroke-width="3.372" stroke-linecap="round" stroke-linejoin="round"/>
<path d="M821.719 122.528C815.293 134.422 811.385 147.511 810.238 160.981C809.091 174.45 810.73 188.012 815.053 200.82C817.678 208.448 823.341 217.001 831.353 216.063C838.042 215.28 841.964 208.236 844.144 201.863C844.956 199.488 845.692 196.983 845.314 194.502C844.936 192.021 843.133 189.583 840.642 189.277C838.417 189.004 836.342 190.429 834.742 191.999C825.001 201.566 825.718 219.581 836.19 228.343C846.662 237.105 864.521 234.634 872.22 223.358" stroke="#171717" stroke-width="3.372" stroke-linecap="round" stroke-linejoin="round"/>
<path d="M488.162 731.888L485.762 785.314" stroke="#171717" stroke-width="3.372" stroke-linecap="round" stroke-linejoin="round"/>
<path d="M578.171 560.615C572.861 557.935 567.182 556.057 561.32 555.045" stroke="#171717" stroke-width="3.372" stroke-linecap="round" stroke-linejoin="round"/>
<path d="M574.031 579.532L574.965 580.555L559.7 570.592" stroke="#171717" stroke-width="3.372" stroke-linecap="round" stroke-linejoin="round"/>
<path d="M562.84 601.291L552.39 588.491" stroke="#171717" stroke-width="3.372" stroke-linecap="round" stroke-linejoin="round"/>
<path d="M544.656 615.629L538.956 599.72" stroke="#171717" stroke-width="3.372" stroke-linecap="round" stroke-linejoin="round"/>
<path d="M523.211 617.66C523.825 612.714 524.439 607.766 525.054 602.818" stroke="#171717" stroke-width="3.372" stroke-linecap="round" stroke-linejoin="round"/>
<path d="M629.65 533.408L619.482 524.555" stroke="#171717" stroke-width="3.372" stroke-linecap="round" stroke-linejoin="round"/>
<path d="M650.155 495.962L637.9 491.439" stroke="#171717" stroke-width="3.372" stroke-linecap="round" stroke-linejoin="round"/>
<path d="M641.167 459.14L653.325 456.993" stroke="#171717" stroke-width="3.372" stroke-linecap="round" stroke-linejoin="round"/>
<path d="M634.771 419.8L646.475 415.219" stroke="#171717" stroke-width="3.372" stroke-linecap="round" stroke-linejoin="round"/>
<path d="M611.526 379.671L621.117 371.947C621.008 372.146 620.828 372.297 620.613 372.371C620.399 372.445 620.164 372.436 619.955 372.347" stroke="#171717" stroke-width="3.372" stroke-linecap="round" stroke-linejoin="round"/>
<path d="M581.352 353.738L587.69 344.213" stroke="#171717" stroke-width="3.372" stroke-linecap="round" stroke-linejoin="round"/>
<path d="M548.812 342.13L549.22 329.962" stroke="#171717" stroke-width="3.372" stroke-linecap="round" stroke-linejoin="round"/>
<path d="M505.226 342.652C504.168 338.421 503.11 334.19 502.053 329.959" stroke="#171717" stroke-width="3.372" stroke-linecap="round" stroke-linejoin="round"/>
<path d="M468.253 352.139L461.386 342.085" stroke="#171717" stroke-width="3.372" stroke-linecap="round" stroke-linejoin="round"/>
<path d="M438.594 377.022L427.923 368.68" stroke="#171717" stroke-width="3.372" stroke-linecap="round" stroke-linejoin="round"/>
<path d="M420.607 408.231L410.03 404" stroke="#171717" stroke-width="3.372" stroke-linecap="round" stroke-linejoin="round"/>
<path d="M408.967 439.006L396.811 438.342" stroke="#171717" stroke-width="3.372" stroke-linecap="round" stroke-linejoin="round"/>
<path d="M410.558 478.57C406.058 478.547 401.648 479.832 397.865 482.27" stroke="#171717" stroke-width="3.372" stroke-linecap="round" stroke-linejoin="round"/>
<path d="M419.021 508.715C414.919 509.689 410.994 511.295 407.386 513.475" stroke="#171717" stroke-width="3.372" stroke-linecap="round" stroke-linejoin="round"/>
<path d="M431.62 534.505L423.182 540.883" stroke="#171717" stroke-width="3.372" stroke-linecap="round" stroke-linejoin="round"/>
<g opacity="0.1">
<path d="M457.855 547.881C454.484 541.874 445.135 544.62 439.875 546.106C433.184 548.025 426.64 550.424 420.293 553.283C407.633 558.947 395.898 566.488 385.484 575.65C363.31 595.09 348.639 621.324 341.762 649.85C337.764 666.216 336.71 683.163 338.649 699.899C339.433 706.493 344.009 711.787 351.235 710.81C358.435 709.836 361.388 703.559 360.47 696.946C358.306 680.49 359.438 663.768 363.803 647.754C368.167 631.74 375.675 616.756 385.89 603.674C395.764 591.151 407.75 580.45 421.307 572.053C428.017 567.853 435.1 564.283 442.467 561.387C447.188 559.568 462.351 555.895 457.855 547.881V547.881Z" fill="#171717"/>
</g>
<g opacity="0.1">
<path d="M563.566 411.316C561.159 414.178 559.99 417.933 558.023 421.124C555.917 424.763 552.962 427.839 549.41 430.09C541.533 434.882 532.335 433.59 525.043 428.405C522.973 426.932 518.863 427.327 517.243 429.411C512.705 435.245 508.261 441.526 500.198 441.784C496.098 441.916 491.881 445.353 492.19 449.793C492.672 456.727 492.958 463.693 492.774 470.642C492.589 477.652 491.088 484.558 492.128 491.514C493.081 497.886 503.016 498.69 505.776 493.298C509.276 486.46 509.376 478.21 509.616 470.642C509.809 462.945 509.24 455.248 507.916 447.664L502.323 457.515C513.336 455.533 526.086 447.498 527.998 435.675L518.542 439.522C529.325 445.782 543.413 446.322 554.303 439.91C562.564 435.049 573.158 422.052 567.981 411.885C567.761 411.516 567.461 411.202 567.102 410.966C566.743 410.731 566.336 410.58 565.91 410.525C565.484 410.47 565.052 410.513 564.645 410.65C564.239 410.787 563.868 411.015 563.563 411.316H563.566Z" fill="#171717"/>
</g>
</g>
</g>
<defs>
<linearGradient id="paint0_linear_46_7773" x1="641.161" y1="860.517" x2="641.161" y2="885.87" gradientUnits="userSpaceOnUse">
<stop stop-color="#D89EFF"/>
<stop offset="1" stop-color="#8238E0"/>
</linearGradient>
<linearGradient id="paint1_linear_46_7773" x1="522.81" y1="315.081" x2="522.81" y2="565.252" gradientUnits="userSpaceOnUse">
<stop stop-color="#D89EFF"/>
<stop offset="1" stop-color="#8238E0"/>
</linearGradient>
<linearGradient id="paint2_linear_46_7773" x1="543.728" y1="539.146" x2="543.728" y2="619.698" gradientUnits="userSpaceOnUse">
<stop stop-color="#D89EFF"/>
<stop offset="1" stop-color="#8238E0"/>
</linearGradient>
<linearGradient id="paint3_linear_46_7773" x1="442.598" y1="797.313" x2="442.598" y2="883.887" gradientUnits="userSpaceOnUse">
<stop stop-color="#D89EFF"/>
<stop offset="1" stop-color="#8238E0"/>
</linearGradient>
<linearGradient id="paint4_linear_46_7773" x1="663.44" y1="822.654" x2="663.44" y2="840.809" gradientUnits="userSpaceOnUse">
<stop stop-color="#D89EFF"/>
<stop offset="1" stop-color="#8238E0"/>
</linearGradient>
<linearGradient id="paint5_linear_46_7773" x1="737.059" y1="783.68" x2="737.059" y2="805.362" gradientUnits="userSpaceOnUse">
<stop stop-color="#D89EFF"/>
<stop offset="1" stop-color="#8238E0"/>
</linearGradient>
<linearGradient id="paint6_linear_46_7773" x1="754.766" y1="727.231" x2="754.766" y2="745.743" gradientUnits="userSpaceOnUse">
<stop stop-color="#D89EFF"/>
<stop offset="1" stop-color="#8238E0"/>
</linearGradient>
<linearGradient id="paint7_linear_46_7773" x1="699.814" y1="743.438" x2="699.814" y2="762.615" gradientUnits="userSpaceOnUse">
<stop stop-color="#D89EFF"/>
<stop offset="1" stop-color="#8238E0"/>
</linearGradient>
<linearGradient id="paint8_linear_46_7773" x1="669.767" y1="774.793" x2="669.767" y2="794.648" gradientUnits="userSpaceOnUse">
<stop stop-color="#D89EFF"/>
<stop offset="1" stop-color="#8238E0"/>
</linearGradient>
<linearGradient id="paint9_linear_46_7773" x1="611.306" y1="755.584" x2="611.306" y2="772.959" gradientUnits="userSpaceOnUse">
<stop stop-color="#D89EFF"/>
<stop offset="1" stop-color="#8238E0"/>
</linearGradient>
<linearGradient id="paint10_linear_46_7773" x1="631.814" y1="807.399" x2="631.814" y2="819.699" gradientUnits="userSpaceOnUse">
<stop stop-color="#D89EFF"/>
<stop offset="1" stop-color="#8238E0"/>
</linearGradient>
<linearGradient id="paint11_linear_46_7773" x1="588.522" y1="838.725" x2="588.522" y2="848.773" gradientUnits="userSpaceOnUse">
<stop stop-color="#D89EFF"/>
<stop offset="1" stop-color="#8238E0"/>
</linearGradient>
<linearGradient id="paint12_linear_46_7773" x1="548.063" y1="798.531" x2="548.063" y2="812.281" gradientUnits="userSpaceOnUse">
<stop stop-color="#D89EFF"/>
<stop offset="1" stop-color="#8238E0"/>
</linearGradient>
<linearGradient id="paint13_linear_46_7773" x1="397.453" y1="775.793" x2="397.453" y2="793.253" gradientUnits="userSpaceOnUse">
<stop stop-color="#D89EFF"/>
<stop offset="1" stop-color="#8238E0"/>
</linearGradient>
<linearGradient id="paint14_linear_46_7773" x1="354.232" y1="778.435" x2="354.232" y2="780.55" gradientUnits="userSpaceOnUse">
<stop stop-color="#D89EFF"/>
<stop offset="1" stop-color="#8238E0"/>
</linearGradient>
<linearGradient id="paint15_linear_46_7773" x1="327.581" y1="804.813" x2="327.581" y2="818.091" gradientUnits="userSpaceOnUse">
<stop stop-color="#D89EFF"/>
<stop offset="1" stop-color="#8238E0"/>
</linearGradient>
<linearGradient id="paint16_linear_46_7773" x1="337.506" y1="741.65" x2="337.506" y2="747.236" gradientUnits="userSpaceOnUse">
<stop stop-color="#D89EFF"/>
<stop offset="1" stop-color="#8238E0"/>
</linearGradient>
<linearGradient id="paint17_linear_46_7773" x1="291.762" y1="775.276" x2="291.762" y2="787.009" gradientUnits="userSpaceOnUse">
<stop stop-color="#D89EFF"/>
<stop offset="1" stop-color="#8238E0"/>
</linearGradient>
<linearGradient id="paint18_linear_46_7773" x1="304.93" y1="738.78" x2="304.93" y2="756.749" gradientUnits="userSpaceOnUse">
<stop stop-color="#D89EFF"/>
<stop offset="1" stop-color="#8238E0"/>
</linearGradient>
<linearGradient id="paint19_linear_46_7773" x1="267.236" y1="748.813" x2="267.236" y2="749.406" gradientUnits="userSpaceOnUse">
<stop stop-color="#D89EFF"/>
<stop offset="1" stop-color="#8238E0"/>
</linearGradient>
<clipPath id="clip0_46_7773">
<rect width="960" height="960" fill="white"/>
</clipPath>
<clipPath id="clip1_46_7773">
<rect width="885" height="815" fill="white" transform="translate(38 73)"/>
</clipPath>
</defs>
</svg>
