<svg width="960" height="960" viewBox="0 0 960 960" fill="none" xmlns="http://www.w3.org/2000/svg">
<g clip-path="url(#clip0_583_1345)">
<path fill-rule="evenodd" clip-rule="evenodd" d="M696.842 788.325C722.222 769.971 698.661 739.768 697.678 738.525C698.615 739.282 718.427 754.847 736.714 722.556C755.442 689.461 702.828 656.772 702.828 656.772C702.828 656.772 743.076 647.203 716.134 613.828C689.192 580.453 652.192 601.753 652.192 601.753C652.192 601.753 668.931 580.224 643.822 570.262C618.713 560.3 593.694 585.409 593.694 585.409C593.694 585.409 595.196 559.897 568.483 563.485C541.77 567.073 531.401 590.985 531.401 590.985C531.401 590.985 509.88 576.65 491.54 587.8C473.2 598.95 475.589 633.652 475.589 633.652C475.589 633.652 461.233 623.283 438.913 638.43C429.572 644.761 425.529 654.012 423.992 662.63C422.729 670.167 422.909 677.875 424.523 685.345L424.58 685.458C433.609 680.978 443.121 677.549 452.931 675.236C453.286 675.147 453.633 675.058 453.975 674.971C457.985 673.949 461.108 673.154 464.231 675.236C466.664 677.126 469.114 679.099 471.586 681.09C475.73 684.428 479.937 687.816 484.231 690.948C498.779 701.558 514.344 709.261 531.998 702.348C533.128 701.783 534.54 701.218 535.952 700.654C537.364 700.089 538.776 699.524 539.905 698.96C548.982 692.351 557.314 684.777 564.755 676.369C568.144 672.415 570.685 668.462 573.227 664.508C575.768 660.555 578.309 656.602 581.697 652.649C602.029 661.688 621.231 670.724 639.303 683.149C641.562 685.408 643.821 687.667 643.821 688.796C645.619 699.585 636.682 707.512 628.403 714.854C626.282 716.736 624.203 718.579 622.36 720.423C613.714 728.132 603.772 734.251 592.993 738.495C585.086 740.754 577.179 743.013 568.143 741.884C553.324 738.71 540.481 735.536 527.763 727.697L526.373 730.588C524.658 739.96 522.285 749.199 519.273 758.239C519.273 758.239 518.177 770.404 524.356 781.214C527.201 786.276 531.449 790.409 536.588 793.114C556.115 803.472 566.088 785.93 566.088 785.93C566.088 785.93 586.421 821.013 616.714 818.223C647.007 815.433 640.637 785.139 640.637 785.139C640.637 785.139 670.931 807.063 696.842 788.325ZM702.014 614.649C701.262 614.3 700.37 614.627 700.022 615.378C699.673 616.13 699.999 617.022 700.751 617.37C704.486 619.104 706.932 622.679 707.904 626.891C708.877 631.109 708.326 635.804 706.24 639.545C701.989 647.167 693.148 651.492 684.132 652.938C683.537 653.033 683.057 653.475 682.913 654.06C682.769 654.644 682.988 655.259 683.47 655.62C692.791 662.598 702.038 669.563 708.895 678.618C715.742 687.66 719.917 699.11 717.818 709.953C715.717 720.811 706.113 730.275 695.403 730.066C694.575 730.05 693.891 730.708 693.874 731.536C693.858 732.365 694.517 733.049 695.345 733.065C707.848 733.31 718.454 722.458 720.764 710.523C723.077 698.571 718.452 686.27 711.287 676.807C704.822 668.27 696.361 661.564 687.955 655.234C696.347 653.235 704.556 648.724 708.86 641.006C711.338 636.564 711.953 631.099 710.827 626.216C709.699 621.327 706.778 616.86 702.014 614.649Z" fill="#171717"/>
<path fill-rule="evenodd" clip-rule="evenodd" d="M417.331 607.437C469.572 598.163 518.593 570.851 517.848 500.9C535.936 500.979 553.951 503.187 571.522 507.479C571.522 507.479 602.707 477.874 610.107 414.643C555.732 391.737 490.786 389.297 416.586 429.948C404.264 436.655 392.394 444.16 381.051 452.415C325.015 493.425 301.623 542.197 296.269 590.315C295.701 595.367 295.332 600.401 295.162 605.415C298.37 606.025 359.805 617.67 417.331 607.437ZM506.174 485.283C505.725 485.231 505.276 485.385 504.953 485.7C504.63 486.016 504.466 486.461 504.508 486.911C506.363 507.058 501.554 527.257 490.82 544.407C480.086 561.558 464.02 574.711 445.088 581.848C444.313 582.14 443.921 583.005 444.214 583.781C444.506 584.556 445.371 584.947 446.146 584.655C465.693 577.286 482.28 563.706 493.363 545.999C504.119 528.814 509.112 508.663 507.646 488.474C526.415 490.656 545.169 492.974 563.906 495.427C564.728 495.534 565.481 494.956 565.588 494.134C565.696 493.313 565.117 492.56 564.296 492.452C544.938 489.918 525.564 487.528 506.174 485.283Z" fill="#171717"/>
<path d="M815.781 649.732L816.041 649.597C816.041 649.597 873.454 613.712 878.232 626.475C883.01 639.238 826.805 690.655 812.46 693.049C798.115 695.443 769.154 647.349 769.154 647.349C770.383 647.855 771.669 648.207 772.983 648.399C807.275 653.177 801.696 622.082 801.696 622.082L815.781 649.732Z" fill="#171717"/>
<path d="M525.222 726.066C526.069 726.631 526.916 727.173 527.764 727.693L526.374 730.584C524.659 739.956 522.286 749.196 519.274 758.235C510.644 784.451 493.012 821.229 460.358 830.841C455.344 832.315 450.155 833.109 444.929 833.202L442.861 833.021C442.333 838.308 442.434 843.639 443.161 848.902C397.2 824.99 371.4 864 371.4 864C369.446 845.95 367.966 827.629 368.09 809.455C368.316 777.015 373.704 745.038 390.805 715.897C393.053 713.542 394.955 710.88 396.453 707.99C404.117 698.562 413.706 690.879 424.578 685.456C433.607 680.977 443.119 677.547 452.929 675.234C457.447 674.104 460.835 672.975 464.229 675.234C470.746 680.294 477.377 685.942 484.229 690.946L483.167 692.911C471.002 707.99 468.743 728.321 469.873 746.394C471.002 754.3 474.391 762.207 481.173 765.594C501.504 774.63 515.059 750.91 518.447 732.838C519.204 730.567 520.458 727.789 522.231 726.546C522.651 726.225 523.144 726.014 523.666 725.93C524.188 725.846 524.723 725.893 525.222 726.066V726.066Z" fill="url(#paint0_linear_583_1345)"/>
<path d="M524.353 781.209C526.824 803.677 525.633 826.397 520.828 848.483C481.374 831.834 458.739 856.751 456.446 859.451C455.7 849.947 457.101 840.396 460.546 831.506L460.354 830.84C493.008 821.228 510.64 784.45 519.27 758.234C519.27 758.234 518.174 770.399 524.353 781.209Z" fill="url(#paint1_linear_583_1345)"/>
<path d="M505.886 126.561C507.671 136.354 477.298 169.788 477.298 169.788H477.285C480.742 160.548 466.691 155.488 459.237 153.488C457.846 153.109 456.372 153.176 455.023 153.68L454.865 153.25C454.865 153.25 462.433 133.337 460.05 118.19C457.667 103.043 434.928 47.1655 441.705 44.0365C448.482 40.9075 495.652 70.3665 505.886 126.561Z" fill="#171717"/>
<path d="M424.525 685.346L424.582 685.459C413.709 690.882 404.12 698.565 396.457 707.993C394.959 710.883 393.057 713.545 390.809 715.9C373.709 745.041 368.32 777.018 368.094 809.458H368.083C368.083 809.458 291.332 711.199 295.161 605.41C298.369 606.02 359.804 617.665 417.33 607.432C411.942 625.312 423.192 662.485 423.192 662.485L423.992 662.631C422.729 670.168 422.91 677.877 424.525 685.346V685.346Z" fill="url(#paint2_linear_583_1345)"/>
<path d="M380.994 452.337L381.05 452.405C325.014 493.418 301.622 542.19 296.268 590.305C296.268 590.305 192.544 412.394 224.442 347.005C228.61 338.466 235.217 329.362 243.598 319.93C243.598 319.93 301.136 317.705 331.95 372.814H331.972C338.2 410.364 380.994 452.337 380.994 452.337Z" fill="#171717"/>
<path d="M368.083 809.459C368.083 809.459 291.332 711.2 295.161 605.411C295.331 600.397 295.7 595.363 296.268 590.311C301.622 542.193 325.014 493.421 381.05 452.411C392.393 444.156 404.263 436.651 416.585 429.944C490.785 389.293 555.731 391.733 610.106 414.639C732.8 466.3 801.7 622.083 801.7 622.083C801.7 622.083 807.279 653.183 772.987 648.4C771.673 648.209 770.387 647.856 769.158 647.35C738.48 635.4 681.417 534.409 571.525 507.47C553.954 503.18 535.938 500.973 517.851 500.896C516.529 500.885 515.196 500.885 513.863 500.896" stroke="#171717" stroke-width="3" stroke-linecap="round" stroke-linejoin="round"/>
<path d="M295.026 605.377L295.161 605.411C298.369 606.021 359.804 617.666 417.33 607.433C469.571 598.159 518.592 570.847 517.847 500.896V500.885" stroke="#171717" stroke-width="3" stroke-linecap="round" stroke-linejoin="round"/>
<path d="M380.995 452.337C380.995 452.337 338.195 410.364 331.973 372.818C331.309 369.039 331.078 365.197 331.284 361.365C333.668 321.504 434.484 213.665 473.197 175.592C474.963 173.977 476.358 171.998 477.286 169.792C480.743 160.552 466.691 155.492 459.237 153.492C457.846 153.113 456.372 153.18 455.023 153.684C453.974 154.049 453.031 154.668 452.279 155.484C424.775 184.899 297.444 259.347 243.601 319.934C235.22 329.366 228.613 338.47 224.445 347.009C192.545 412.397 296.271 590.309 296.271 590.309" stroke="#171717" stroke-width="3" stroke-linecap="round" stroke-linejoin="round"/>
<path d="M598.98 704.006C598.98 704.006 598.98 709.992 595.78 710.783C592.58 711.574 588.404 708.196 588.404 708.196" stroke="#171717" stroke-width="3" stroke-linecap="round" stroke-linejoin="round"/>
<path d="M613.721 691.051C613.721 691.051 624.486 690.859 625.491 701.217" stroke="#171717" stroke-width="3" stroke-linecap="round" stroke-linejoin="round"/>
<path d="M587.414 672.312C587.414 672.312 595.388 669.522 598.178 679.09" stroke="#171717" stroke-width="3" stroke-linecap="round" stroke-linejoin="round"/>
<path d="M550.738 708.592C550.738 708.592 553.731 719.751 563.694 718.565" stroke="#171717" stroke-width="3" stroke-linecap="round" stroke-linejoin="round"/>
<path d="M523.744 726.01C523.744 726.01 523.201 726.21 522.23 726.552C517.03 728.359 499.425 734.165 484.764 735.17" stroke="#171717" stroke-width="3" stroke-linecap="round" stroke-linejoin="round"/>
<path d="M526.375 730.584C524.659 739.956 522.287 749.196 519.275 758.235C510.645 784.451 493.013 821.229 460.359 830.841C455.344 832.315 450.155 833.109 444.93 833.202" stroke="#171717" stroke-width="3" stroke-linecap="round" stroke-linejoin="round"/>
<path d="M697.644 738.49C697.644 738.493 697.646 738.496 697.648 738.498C697.65 738.5 697.652 738.501 697.655 738.501C697.667 738.501 697.667 738.513 697.678 738.524C698.661 739.767 722.222 769.97 696.842 788.324C670.931 807.062 640.637 785.138 640.637 785.138C640.637 785.138 647.007 815.432 616.714 818.222C586.421 821.012 566.088 785.929 566.088 785.929C566.088 785.929 556.115 803.471 536.588 793.113C531.449 790.409 527.201 786.276 524.356 781.213C518.177 770.403 519.273 758.238 519.273 758.238" stroke="#171717" stroke-width="3" stroke-linecap="round" stroke-linejoin="round"/>
<path d="M424.525 685.347C422.911 677.877 422.731 670.169 423.994 662.632C425.531 654.014 429.574 644.763 438.915 638.432C461.235 623.285 475.591 633.654 475.591 633.654C475.591 633.654 473.2 598.95 491.54 587.8C509.88 576.65 531.401 590.985 531.401 590.985C531.401 590.985 541.77 567.073 568.483 563.485C595.196 559.897 593.694 585.409 593.694 585.409C593.694 585.409 618.713 560.3 643.822 570.262C668.931 580.224 652.192 601.753 652.192 601.753C652.192 601.753 689.192 580.453 716.134 613.828C743.076 647.203 702.828 656.772 702.828 656.772C702.828 656.772 755.442 689.461 736.714 722.556C718.427 754.849 698.614 739.284 697.678 738.527" stroke="#171717" stroke-width="3" stroke-linecap="round" stroke-linejoin="round"/>
<path d="M483.17 692.915C471.005 707.994 468.746 728.325 469.876 746.398C471.005 754.304 474.394 762.211 481.176 765.598C501.507 774.634 515.062 750.914 518.45 732.842C519.207 730.571 520.461 727.793 522.234 726.55C522.654 726.227 523.147 726.014 523.669 725.93C524.192 725.845 524.727 725.891 525.227 726.064C526.074 726.628 526.921 727.171 527.769 727.691C540.487 735.53 553.33 738.704 568.149 741.878C577.185 743.007 585.092 740.748 592.999 738.489C603.778 734.245 613.72 728.126 622.366 720.417C631.402 711.381 646.086 702.344 643.827 688.79C643.827 687.661 641.568 685.402 639.309 683.143C621.237 670.718 602.035 661.682 581.703 652.643C574.926 660.55 571.538 668.457 564.761 676.363C557.32 684.771 548.988 692.345 539.911 698.954C537.652 700.083 534.263 701.213 532.004 702.342C514.35 709.255 498.785 701.552 484.237 690.942C477.381 685.942 470.75 680.29 464.237 675.23C460.848 672.971 457.46 674.1 452.937 675.23C443.127 677.543 433.615 680.973 424.586 685.452C413.713 690.874 404.124 698.557 396.461 707.986C394.963 710.876 393.061 713.538 390.813 715.893C373.713 745.034 368.324 777.011 368.098 809.451C367.974 827.625 369.454 845.951 371.408 863.996C372.176 871.157 373.023 878.273 373.87 885.321C373.87 893.228 379.123 915.796 391.479 915.796C477.357 915.796 553.464 910.171 639.179 908.657" stroke="#171717" stroke-width="3" stroke-linecap="round" stroke-linejoin="round"/>
<path d="M463.1 766.131C463.1 766.131 445.49 802.874 442.858 833.021C442.33 838.308 442.431 843.639 443.158 848.902C444.604 858.164 448.693 865.585 456.848 869.245C457.255 869.425 457.673 869.606 458.091 869.787C458.159 869.809 458.238 869.843 458.305 869.866C505.711 889.633 644.586 878.145 644.586 878.145" stroke="#171717" stroke-width="3" stroke-linecap="round" stroke-linejoin="round"/>
<path d="M524.353 781.209C526.824 803.677 525.633 826.396 520.828 848.483C519.541 854.537 517.987 860.58 516.164 866.612C553.246 863.935 590.554 863.901 627.704 862.455C631.443 862.308 635.193 862.255 638.931 862.184" stroke="#171717" stroke-width="3" stroke-linecap="round" stroke-linejoin="round"/>
<path d="M460.546 831.506C457.101 840.395 455.7 849.946 456.446 859.451C456.697 862.937 457.248 866.395 458.095 869.786C458.109 869.866 458.127 869.945 458.151 870.023L458.309 869.865C458.49 869.673 458.693 869.47 458.885 869.289" stroke="#171717" stroke-width="3" stroke-linecap="round" stroke-linejoin="round"/>
<path d="M643.676 878.449C643.993 878.382 644.298 878.314 644.614 878.249C654.712 876.069 664.817 873.889 674.93 871.709C679.256 870.783 683.707 869.845 688.067 870.609C688.993 870.779 690.156 871.479 689.783 872.338C689.596 872.665 689.3 872.916 688.948 873.049C683.611 875.795 677.985 877.939 672.174 879.442C681.12 878.742 690.088 878.042 699.057 877.714C702.671 877.59 706.275 877.522 709.889 877.533C713.3 877.556 716.813 877.669 719.942 879.002C721.297 879.589 722.754 880.888 722.257 882.277C721.885 883.339 720.586 883.701 719.479 883.915C703.779 886.815 687.762 887.53 671.813 888.196C685.706 888.377 699.584 888.961 713.447 889.947C716.598 890.173 719.84 890.447 722.709 891.788C723.997 892.398 725.341 893.539 725.138 894.951C724.912 896.476 723.104 897.131 721.602 897.451C702.875 901.427 683.549 901.359 664.402 901.269C684.011 901.382 703.653 901.483 723.194 903.121C726.503 903.403 730.321 904.036 731.948 906.939C726.944 910.721 721.065 913.177 714.858 914.077C708.679 914.959 702.428 915.22 696.198 914.857C677.065 914.206 658.01 912.1 639.198 908.557C639.165 908.546 639.131 908.546 639.098 908.535" stroke="#171717" stroke-width="3" stroke-linecap="round" stroke-linejoin="round"/>
<path d="M638.457 862.557C638.638 862.512 638.807 862.478 638.988 862.433C658.348 857.916 678.171 855.687 698.051 855.791C698.479 855.796 698.893 855.948 699.223 856.22C699.554 856.492 699.782 856.869 699.87 857.288C699.958 857.707 699.901 858.144 699.707 858.526C699.514 858.908 699.197 859.213 698.807 859.391C689.726 863.401 679.651 865.163 669.801 866.846C685.231 864.632 700.931 862.418 716.349 864.946C716.884 865.017 717.388 865.241 717.799 865.592C718.209 865.942 718.51 866.404 718.664 866.922C719.139 868.707 717.535 869.644 716.157 870.277C710.572 872.798 704.852 875.008 699.022 876.896C699.293 876.873 699.564 876.862 699.835 876.839" stroke="#171717" stroke-width="3" stroke-linecap="round" stroke-linejoin="round"/>
<path d="M769.154 647.35C769.154 647.35 798.104 695.45 812.46 693.05C826.816 690.65 883.021 639.229 878.232 626.476C873.443 613.723 816.041 649.6 816.041 649.6" stroke="#171717" stroke-width="3" stroke-linecap="round" stroke-linejoin="round"/>
<path d="M801.696 622.082L815.781 649.732L822.818 663.546" stroke="#171717" stroke-width="3" stroke-linecap="round" stroke-linejoin="round"/>
<path d="M477.3 169.788C477.3 169.788 507.673 136.354 505.888 126.561C495.654 70.3675 448.488 40.9095 441.708 44.0385C434.928 47.1675 457.657 103.038 460.052 118.191C462.447 133.344 454.867 153.251 454.867 153.251" stroke="#171717" stroke-width="3" stroke-linecap="round" stroke-linejoin="round"/>
<path d="M423.192 662.485C423.192 662.485 411.942 625.312 417.33 607.432" stroke="#171717" stroke-width="3" stroke-linecap="round" stroke-linejoin="round"/>
<path d="M571.521 507.469C571.521 507.469 602.709 477.864 610.107 414.633" stroke="#171717" stroke-width="3" stroke-linecap="round" stroke-linejoin="round"/>
<path d="M243.601 319.934C243.601 319.934 301.139 317.709 331.953 372.818" stroke="#171717" stroke-width="3" stroke-linecap="round" stroke-linejoin="round"/>
<path d="M371.4 863.999C371.4 863.999 397.2 824.985 443.158 848.899C443.158 848.91 443.17 848.91 443.17 848.91" stroke="#171717" stroke-width="3" stroke-linecap="round" stroke-linejoin="round"/>
<path d="M456.242 859.688L456.442 859.451C458.735 856.751 481.37 831.834 520.824 848.483" stroke="#171717" stroke-width="3" stroke-linecap="round" stroke-linejoin="round"/>
<path d="M198.288 421.09C193.111 409.854 190.312 397.669 190.066 385.299C189.821 372.93 192.135 360.644 196.863 349.211" stroke="#171717" stroke-width="3" stroke-linecap="round" stroke-linejoin="round"/>
<path d="M224.154 291.058C227.538 284.515 232.946 279.242 239.572 276.023" stroke="#171717" stroke-width="3" stroke-linecap="round" stroke-linejoin="round"/>
<path d="M495.727 202.099C508.75 188.842 517.8 172.202 521.85 154.064" stroke="#171717" stroke-width="3" stroke-linecap="round" stroke-linejoin="round"/>
<path d="M681.186 397.504C714.14 411.859 742.985 434.221 765.101 462.558" stroke="#171717" stroke-width="3" stroke-linecap="round" stroke-linejoin="round"/>
<path d="M874.5 703.932C886.943 695.321 896.421 683.075 901.635 668.869" stroke="#171717" stroke-width="3" stroke-linecap="round" stroke-linejoin="round"/>
<path d="M844.084 389.246C834.484 420.132 829.529 453.62 838.32 484.746C841.206 494.965 845.891 505.227 854.409 511.567C862.927 517.907 876.036 518.985 883.704 511.639C887.17 508.318 889.231 503.352 888.374 498.63C887.517 493.908 883.388 489.766 878.592 489.58C874.386 489.416 870.499 492.138 868.076 495.58C861.215 505.33 864.766 519.361 872.316 528.587C879.866 537.813 890.576 543.759 900.054 550.987C909.532 558.215 918.412 567.907 919.437 579.787C919.719 583.26 919.313 586.755 918.244 590.071C917.174 593.387 915.46 596.46 913.202 599.113C910.079 602.745 905.721 605.566 900.938 605.825C896.155 606.084 891.08 603.282 889.648 598.712" stroke="#171717" stroke-width="3" stroke-linecap="round" stroke-linejoin="round"/>
<path d="M757.5 721.745L777.153 716.379" stroke="#171717" stroke-width="3" stroke-linecap="round" stroke-linejoin="round"/>
<path d="M752.452 744L801.734 771.906" stroke="#171717" stroke-width="3" stroke-linecap="round" stroke-linejoin="round"/>
<path d="M739.106 775.645L734.419 764.445" stroke="#171717" stroke-width="3" stroke-linecap="round" stroke-linejoin="round"/>
<path d="M127.192 360.062C113.592 360.748 103.862 373.292 97.5375 385.35C86.5149 406.642 79.8694 429.927 77.993 453.831C76.1166 477.734 79.0474 501.771 86.6125 524.523C92.2185 541.084 100.862 557.472 115.312 567.323C129.762 577.174 151.059 578.494 163.868 566.594C171.018 559.951 174.291 547.612 167.521 540.583C161.037 533.849 148.704 536.352 143.052 543.797C137.4 551.242 137.245 561.616 139.61 570.659C143.966 587.312 155.593 601.035 167.774 613.197C179.955 625.359 193.2 636.799 202.263 651.44C211.326 666.081 215.609 685.019 208.28 700.594C205.403 706.708 200.929 711.933 195.329 715.717C189.73 719.5 183.213 721.703 176.467 722.092C169.72 722.481 162.994 721.042 156.996 717.927C150.999 714.812 145.954 710.137 142.392 704.393" stroke="#171717" stroke-width="3" stroke-linecap="round" stroke-linejoin="round"/>
<path d="M215.893 581.533L224.515 563.92" stroke="#171717" stroke-width="3" stroke-linecap="round" stroke-linejoin="round"/>
<path d="M227.553 579.928L210.243 566.865" stroke="#171717" stroke-width="3" stroke-linecap="round" stroke-linejoin="round"/>
<path d="M51.3752 466.66C48.2676 463.584 46.085 459.698 45.0752 455.443" stroke="#171717" stroke-width="3" stroke-linecap="round" stroke-linejoin="round"/>
<path d="M39.5312 465.909L53.9313 455.609" stroke="#171717" stroke-width="3" stroke-linecap="round" stroke-linejoin="round"/>
<path d="M826.346 566.239L833.287 554.139" stroke="#171717" stroke-width="3" stroke-linecap="round" stroke-linejoin="round"/>
<path d="M834.418 564.648C831.281 561.055 827.075 558.56 822.418 557.529" stroke="#171717" stroke-width="3" stroke-linecap="round" stroke-linejoin="round"/>
<path d="M876.601 430.707L886.153 417.141" stroke="#171717" stroke-width="3" stroke-linecap="round" stroke-linejoin="round"/>
<path d="M887.906 428.992L873.525 418.668" stroke="#171717" stroke-width="3" stroke-linecap="round" stroke-linejoin="round"/>
<path d="M144.28 674.306L146.669 658.758" stroke="#171717" stroke-width="3" stroke-linecap="round" stroke-linejoin="round"/>
<path d="M152.682 667.134C147.409 664.873 141.632 664.048 135.938 664.743" stroke="#171717" stroke-width="3" stroke-linecap="round" stroke-linejoin="round"/>
<path d="M313.3 781.352C295.853 756.849 285.277 728.126 282.668 698.16" stroke="#171717" stroke-width="3" stroke-linecap="round" stroke-linejoin="round"/>
<path d="M475.59 686.291C465.888 696.28 459.858 709.263 458.486 723.121C457.113 736.978 460.478 750.892 468.031 762.591C472.864 770.078 480.593 776.991 489.474 776.251C495.416 775.757 500.522 771.928 504.889 767.869C511.294 761.912 516.899 755.149 521.564 747.75" stroke="#171717" stroke-width="3" stroke-linecap="round" stroke-linejoin="round"/>
<path d="M368.98 847.115C388.834 831.126 418.124 827.92 440.967 839.236" stroke="#171717" stroke-width="3" stroke-linecap="round" stroke-linejoin="round"/>
<path d="M457.173 847.249C465.429 838.702 476.167 832.972 487.864 830.873C499.561 828.775 511.621 830.414 522.334 835.558" stroke="#171717" stroke-width="3" stroke-linecap="round" stroke-linejoin="round"/>
<path d="M294.564 617.799C332.606 632.289 374.341 633.942 413.409 622.508" stroke="#171717" stroke-width="3" stroke-linecap="round" stroke-linejoin="round"/>
<g opacity="0.1">
<path d="M464.287 149.347C459.972 150.077 457.156 153.112 453.874 155.78C450.461 158.554 447.03 161.307 443.583 164.039C436.709 169.485 429.617 174.693 422.599 179.955C408.286 190.687 393.619 200.934 378.917 211.122C350.017 231.147 320.931 251.022 294.127 273.837C278.981 286.759 264.778 300.747 251.627 315.694C245.167 323.013 256.18 333.809 262.3 326.367C307.187 271.787 370.426 236.167 426.132 194.119C434.053 188.14 441.732 181.961 449.284 175.533C453.037 172.34 456.762 169.115 460.378 165.768C464.015 162.401 468.089 159.453 469.415 154.479C470.297 151.174 467.342 148.83 464.284 149.347H464.287Z" fill="#171717"/>
</g>
<g opacity="0.1">
<path d="M569.493 502.694C575.267 509.018 586.015 511.161 593.735 514.511C601.789 518.006 609.751 521.713 617.619 525.631C633.593 533.599 649.068 542.53 663.958 552.377C693.122 571.705 719.851 594.476 743.568 620.198C750.435 627.632 757.039 635.299 763.379 643.198C766.235 646.756 769.021 650.367 771.738 654.031C775.415 658.986 778.28 663.96 785.138 664.095C786.631 664.071 788.076 663.57 789.264 662.666C790.451 661.762 791.318 660.502 791.738 659.069C794.61 650.181 784.132 640.702 779.057 634.255C773.292 626.931 767.292 619.799 761.057 612.861C748.778 599.177 735.639 586.29 721.72 574.278C694.13 550.402 663.745 529.96 631.232 513.401C622.022 508.734 612.652 504.421 603.12 500.463C593.801 496.583 582.631 490.288 572.368 491.801C567.19 492.565 566.549 499.467 569.493 502.692V502.694Z" fill="#171717"/>
</g>
<g opacity="0.1">
<path d="M296.637 611.546C294.415 618.856 296.46 627.775 297.507 635.216C298.648 643.314 300.066 651.365 301.761 659.371C305.256 675.871 309.764 692.139 315.261 708.085C320.752 724.093 327.188 739.762 334.535 755.009C338.103 762.401 341.903 769.677 345.935 776.835C349.623 783.405 353.294 791.864 358.846 797.016C359.927 798.046 361.309 798.705 362.79 798.896C364.272 799.088 365.775 798.801 367.083 798.079C367.577 797.773 368.038 797.417 368.459 797.016C369.325 796.177 369.945 795.118 370.253 793.952C370.562 792.787 370.545 791.56 370.207 790.403C367.565 783.136 361.951 776.467 358.058 769.748C354.221 763.125 350.658 756.348 347.282 749.477C339.999 734.6 333.653 719.282 328.282 703.614C322.959 688.201 318.56 672.485 315.107 656.55C313.44 648.813 312.021 641.028 310.849 633.194C309.744 625.721 309.783 617.1 306.483 610.258C304.373 605.883 297.891 607.399 296.631 611.546H296.637Z" fill="#171717"/>
</g>
<g opacity="0.1">
<path d="M458.646 674.201C423.698 677.35 395.665 706.678 382.559 737.501C366.401 775.501 368.074 817.541 373.211 857.666C374.497 867.718 375.611 877.885 377.489 887.848C378.929 895.495 381.656 903.748 387.536 909.173C394.536 915.633 403.825 916.849 412.995 916.842C423.507 916.835 434.068 916.71 444.574 916.351C488.456 914.851 532.386 914.973 576.292 914.659C625.528 914.307 674.742 913.233 723.977 912.829C730.971 912.771 730.988 901.921 723.977 901.954C683.06 902.147 642.154 901.654 601.239 901.889C560.665 902.124 520.074 902.713 479.499 902.528C459.199 902.436 438.925 901.949 418.629 901.951C411.253 901.951 401.874 903.192 396.883 896.521C392.729 890.969 392.109 882.866 391.139 876.241C385.608 838.448 380.247 799.104 390.055 761.536C394.755 743.514 403.009 726.161 415.696 712.368C427.891 699.11 443.035 690.631 460.166 685.435C466.066 683.646 465.323 673.6 458.646 674.202V674.201Z" fill="#171717"/>
</g>
<g opacity="0.1">
<path d="M460 835.769C455.521 843.798 455.862 854.369 457.754 863.094C459.911 873.041 476.021 868.746 473.078 858.869C471.013 851.938 471.597 845.914 471.366 838.848C471.173 832.98 463.042 830.316 460 835.769V835.769Z" fill="#171717"/>
</g>
<g opacity="0.1">
<path d="M486.423 735.154C494.24 732.154 501.896 729.237 510.358 728.754C518.868 728.264 527.182 729.596 535.48 731.338C552.259 734.859 569.58 740 586.907 737.8C609.358 734.882 629.894 723.635 644.445 706.29C649.334 700.361 654.132 693.95 654.184 685.963C654.209 682.134 649.84 680.974 647.222 683.08C641.605 687.598 638.429 694.273 633.734 699.669C629 705.142 623.538 709.938 617.5 713.924C605.582 721.745 591.122 727.078 576.791 727.724C559.118 728.524 542.091 721.524 524.645 719.824C510.734 718.468 492.871 719.569 483.777 731.712C482.584 733.305 484.577 735.863 486.424 735.155L486.423 735.154Z" fill="#171717"/>
</g>
<g opacity="0.1">
<path d="M445.778 831.215C453.166 835.639 464.556 828.615 471.066 824.953C479.554 820.089 487.297 814.026 494.056 806.953C500.684 800.109 506.273 792.33 510.645 783.865C512.913 779.613 514.829 775.182 516.374 770.617C517.728 766.378 519.922 761.169 518.858 756.731C518.698 756.183 518.399 755.686 517.991 755.287C517.582 754.889 517.077 754.603 516.525 754.457C515.973 754.312 515.393 754.311 514.841 754.456C514.289 754.601 513.783 754.886 513.374 755.283C510.567 758.083 509.553 762.697 507.764 766.202C505.776 770.096 503.836 773.969 501.513 777.683C496.854 785.078 491.416 791.95 485.29 798.183C479.339 804.221 472.737 809.58 465.605 814.162C461.945 816.54 458.115 818.655 454.286 820.745C450.554 822.781 446.805 824.169 445.021 828.324C444.754 828.811 444.684 829.381 444.825 829.918C444.966 830.455 445.307 830.917 445.778 831.21V831.215Z" fill="#171717"/>
</g>
</g>
<defs>
<linearGradient id="paint0_linear_583_1345" x1="447.924" y1="673.93" x2="447.924" y2="864" gradientUnits="userSpaceOnUse">
<stop stop-color="#D89EFF"/>
<stop offset="1" stop-color="#8238E0"/>
</linearGradient>
<linearGradient id="paint1_linear_583_1345" x1="490.928" y1="758.234" x2="490.928" y2="859.451" gradientUnits="userSpaceOnUse">
<stop stop-color="#D89EFF"/>
<stop offset="1" stop-color="#8238E0"/>
</linearGradient>
<linearGradient id="paint2_linear_583_1345" x1="359.802" y1="605.41" x2="359.802" y2="809.458" gradientUnits="userSpaceOnUse">
<stop stop-color="#D89EFF"/>
<stop offset="1" stop-color="#8238E0"/>
</linearGradient>
<clipPath id="clip0_583_1345">
<rect width="884" height="876" fill="white" transform="translate(38 42)"/>
</clipPath>
</defs>
</svg>
